<svg width="1592" height="602" viewBox="0 0 1592 602" fill="none" xmlns="http://www.w3.org/2000/svg">
<g filter="url(#filter0_d)">
<path d="M1551 547.5H234.922L222.564 535.141H40.373V40.8397H731.049L748.382 58.1726H1551V547.5Z" stroke="#05FFFF" stroke-width="3" stroke-miterlimit="10"/>
<path d="M1557.67 92.6057H1545V194.039H1557.67V92.6057Z" fill="#05FFFF"/>
<path d="M1557.67 207.097H1545V215.724H1557.67V207.097Z" fill="#05FFFF"/>
<path d="M1557.67 220.077H1545V228.705H1557.67V220.077Z" fill="#05FFFF"/>
<path d="M1557.67 232.979H1545V241.607H1557.67V232.979Z" fill="#05FFFF"/>
<path d="M1557.67 245.882H1545V254.509H1557.67V245.882Z" fill="#05FFFF"/>
<path d="M48.768 94.3156H34V98.5128H48.768V94.3156Z" fill="#05FFFF"/>
<path d="M48.8461 325.94H34.0781V317.546H48.8461V325.94ZM48.8461 306.975H34.0781V298.58H48.8461V306.975ZM48.8461 288.01H34.0781V279.615H48.8461V288.01ZM48.8461 269.044H34.0781V260.65H48.8461V269.044ZM48.8461 250.157H34.0781V241.762H48.8461V250.157ZM48.8461 231.192H34.0781V222.797H48.8461V231.192ZM48.8461 212.226H34.0781V203.832H48.8461V212.226ZM48.8461 193.261H34.0781V184.867H48.8461V193.261ZM48.8461 174.374H34.0781V165.979H48.8461V174.374ZM48.8461 155.409H34.0781V147.014H48.8461V155.409ZM48.8461 136.443H34.0781V128.049H48.8461V136.443ZM48.8461 117.478H34.0781V109.084H48.8461V117.478Z" fill="#05FFFF"/>
<path d="M48.768 336.433H34V340.631H48.768V336.433Z" fill="#05FFFF"/>
<path d="M270.521 34H533.547L553.989 49.7008H270.521V34ZM262.36 34H250.623V49.7008H262.36V34ZM236.244 34H223.574V49.7008H236.244V34Z" fill="#05FFFF"/>
<path d="M1406.42 532.058H1403V519H1406.42V532.058ZM1412.95 519H1409.53V532.058H1412.95V519ZM1419.56 519H1416.14V532.058H1419.56V519ZM1426.08 519H1422.74V532.058H1426.16V519H1426.08ZM1432.69 519H1429.27V532.058H1432.69V519ZM1439.3 519H1435.88V532.058H1439.3V519ZM1445.83 519H1442.41V532.058H1445.83V519ZM1452.43 519H1449.01V532.058H1452.43V519ZM1458.96 519H1455.54V532.058H1458.96V519ZM1465.57 519H1462.15V532.058H1465.57V519ZM1472.18 519H1468.76V532.058H1472.18V519ZM1478.71 519H1475.29V532.058H1478.71V519ZM1485.31 519H1481.89V532.058H1485.31V519ZM1491.92 519H1488.5V532.058H1491.92V519ZM1498.45 519H1495.03V532.058H1498.45V519ZM1505.05 519H1501.63V532.058H1505.05V519ZM1511.58 519H1508.24V532.058H1511.66V519H1511.58ZM1518.19 519H1514.77V532.058H1518.19V519ZM1524.8 519H1521.38V532.058H1524.8V519ZM1531.33 519H1527.91V532.058H1531.33V519ZM1537.93 519H1534.51V532.058H1537.93V519Z" fill="#05FFFF"/>
<path d="M227.864 565.97L215.895 554H40" stroke="#05FFFF" stroke-width="3" stroke-miterlimit="10"/>
<path d="M968.083 58.1728L949.895 40.0626H774" stroke="#05FFFF" stroke-width="3" stroke-miterlimit="10"/>
</g>
<defs>
<filter id="filter0_d" x="0" y="0" width="1591.67" height="601.031" filterUnits="userSpaceOnUse" color-interpolation-filters="sRGB">
<feFlood flood-opacity="0" result="BackgroundImageFix"/>
<feColorMatrix in="SourceAlpha" type="matrix" values="0 0 0 0 0 0 0 0 0 0 0 0 0 0 0 0 0 0 127 0"/>
<feOffset/>
<feGaussianBlur stdDeviation="17"/>
<feColorMatrix type="matrix" values="0 0 0 0 0.0196078 0 0 0 0 1 0 0 0 0 1 0 0 0 0.55 0"/>
<feBlend mode="normal" in2="BackgroundImageFix" result="effect1_dropShadow"/>
<feBlend mode="normal" in="SourceGraphic" in2="effect1_dropShadow" result="shape"/>
</filter>
</defs>
</svg>
