<svg width="308" height="135" viewBox="0 0 308 135" fill="none" xmlns="http://www.w3.org/2000/svg">
<path d="M259.415 34H226.451H207.953H39.5731L34 39.5731V94.672L39.5731 100.245H260.917L266.49 94.672V41.0356L259.415 34ZM44.3557 72.5376L39.1779 69.336V66.6878L44.3557 69.8894V72.5376ZM44.3557 65.9368L39.1779 62.7352V60.087L44.3557 63.2886V65.9368ZM44.3557 59.336L39.1779 56.1344V53.4862L44.3557 56.6878V59.336ZM44.3557 52.7747L39.1779 49.5731V46.9249L44.3557 50.1265V52.7747Z" fill="#F323C6"/>
<path d="M274 88.7036H269.139V87.4783H274V88.7036ZM274 84.0395H269.139V82.8142H274V84.0395ZM274 79.3755H269.139V78.1502H274V79.3755ZM274 74.7115H269.139V73.4862H274V74.7115ZM274 70.0474H269.139V68.8221H274V70.0474ZM274 65.3834H269.139V64.1581H274V65.3834ZM274 60.7194H269.139V59.4941H274V60.7194ZM274 56.0553H269.139V54.83H274V56.0553ZM274 51.3913H269.139V50.166H274V51.3913ZM274 46.7273H269.139V45.502H274V46.7273Z" fill="#F323C6"/>
</svg>
