<svg width="83" height="7" viewBox="0 0 83 7" fill="none" xmlns="http://www.w3.org/2000/svg">
<path d="M3.18493 7H0V0H3.18493V7ZM9.26521 0H6.08028V7H9.26521V0ZM15.4419 0H12.2569V7H15.4419V0ZM21.6185 0H18.4338V7H21.6185V0ZM27.6988 0H24.5139V7H27.6988V0ZM33.8757 0H30.6907V7H33.8757V0ZM39.9557 0H36.771V7H39.9557V0ZM46.1326 0H42.9477V7H46.1326V0ZM52.3093 0H49.1243V7H52.3093V0ZM58.3895 0H55.2046V7H58.3895V0ZM64.5662 0H61.3815V7H64.5662V0ZM70.6465 0H67.4615V7H70.6465V0ZM76.8233 0H73.6384V7H76.8233V0ZM83 0H79.8151V7H83V0Z" fill="#05FFFF"/>
</svg>
