<svg width="242" height="16" viewBox="0 0 242 16" fill="none" xmlns="http://www.w3.org/2000/svg">
<path d="M3.61543 15.2875H0.529297V0.885742H3.61543V15.2875ZM9.5071 0.885742H6.42097V15.2875H9.5071V0.885742ZM15.4921 0.885742H12.406V15.2875H15.4921V0.885742ZM21.4772 0.885742H18.3913V15.2875H21.4772V0.885742ZM27.3689 0.885742H24.2827V15.2875H27.3689V0.885742ZM33.3541 0.885742H30.268V15.2875H33.3541V0.885742ZM39.2456 0.885742H36.1597V15.2875H39.2456V0.885742ZM45.2309 0.885742H42.1447V15.2875H45.2309V0.885742ZM51.2159 0.885742H48.1298V15.2875H51.2159V0.885742ZM57.1076 0.885742H54.0215V15.2875H57.1076V0.885742ZM63.0926 0.885742H60.0067V15.2875H63.0926V0.885742ZM68.9843 0.885742H65.8982V15.2875H68.9843V0.885742ZM74.9696 0.885742H71.8834V15.2875H74.9696V0.885742ZM80.9546 0.885742H77.8685V15.2875H80.9546V0.885742ZM86.8463 0.885742H83.7602V15.2875H86.8463V0.885742ZM92.8313 0.885742H89.7452V15.2875H92.8313V0.885742ZM98.723 0.885742H95.6369V15.2875H98.723V0.885742ZM104.708 0.885742H101.622V15.2875H104.708V0.885742ZM110.693 0.885742H107.607V15.2875H110.693V0.885742ZM116.585 0.885742H113.499V15.2875H116.585V0.885742ZM122.57 0.885742H119.484V15.2875H122.57V0.885742ZM128.462 0.885742H125.376V15.2875H128.462V0.885742ZM134.447 0.885742H131.361V15.2875H134.447V0.885742ZM140.432 0.885742H137.346V15.2875H140.432V0.885742ZM146.324 0.885742H143.238V15.2875H146.324V0.885742ZM152.309 0.885742H149.223V15.2875H152.309V0.885742ZM158.2 0.885742H155.114V15.2875H158.2V0.885742ZM164.186 0.885742H161.099V15.2875H164.186V0.885742ZM170.171 0.885742H167.085V15.2875H170.171V0.885742ZM176.062 0.885742H172.976V15.2875H176.062V0.885742ZM182.047 0.885742H178.961V15.2875H182.047V0.885742ZM187.939 0.885742H184.853V15.2875H187.939V0.885742ZM193.924 0.885742H190.838V15.2875H193.924V0.885742ZM199.909 0.885742H196.823V15.2875H199.909V0.885742ZM205.801 0.885742H202.715V15.2875H205.801V0.885742ZM211.786 0.885742H208.7V15.2875H211.786V0.885742ZM217.678 0.885742H214.592V15.2875H217.678V0.885742ZM223.663 0.885742H220.577V15.2875H223.663V0.885742ZM229.648 0.885742H226.562V15.2875H229.648V0.885742ZM235.54 0.885742H232.454V15.2875H235.54V0.885742ZM241.525 0.885742H238.439V15.2875H241.525V0.885742Z" fill="#05FFFF"/>
</svg>
