<?xml version="1.0" encoding="UTF-8" standalone="no"?>
<svg
   xmlns:dc="http://purl.org/dc/elements/1.1/"
   xmlns:cc="http://creativecommons.org/ns#"
   xmlns:rdf="http://www.w3.org/1999/02/22-rdf-syntax-ns#"
   xmlns:svg="http://www.w3.org/2000/svg"
   xmlns="http://www.w3.org/2000/svg"
   id="svg32"
   version="1.1"
   viewBox="0 0 60.488287 57.261721"
   height="57.261719pt"
   width="60.488289pt">
  <metadata
     id="metadata36">
    <rdf:RDF>
      <cc:Work
         rdf:about="">
        <dc:format>image/svg+xml</dc:format>
        <dc:type
           rdf:resource="http://purl.org/dc/dcmitype/StillImage" />
        <dc:title></dc:title>
      </cc:Work>
    </rdf:RDF>
  </metadata>
  <defs
     id="defs11">
    <clipPath
       id="clip1">
      <path
         id="path2"
         d="M 0,0 H 61 V 72.378906 H 0 Z m 0,0" />
    </clipPath>
    <clipPath
       id="clip2">
      <path
         id="path5"
         d="m 190,57 h 60.57031 v 8 H 190 Z m 0,0" />
    </clipPath>
    <clipPath
       id="clip3">
      <path
         id="path8"
         d="m 190,7 h 60.57031 V 48 H 190 Z m 0,0" />
    </clipPath>
  </defs>
  <g
     transform="translate(-182.29353,-6.4762727)"
     id="surface1">
    <path
       id="path13"
       d="m 126.16406,49.445313 2.4375,-3.476563 h -1.83593 l -1.6211,2.449219 -1.64062,-2.449219 h -1.8125 l 2.4375,3.488281 -2.60157,3.667969 h 1.81641 l 1.80078,-2.617187 1.79297,2.617187 h 1.82422 z m -10.35156,2.339843 h -1.61719 v -1.933593 h 1.61719 c 0.60156,0 1.05469,0.375 1.05469,0.96875 0,0.601562 -0.45313,0.964843 -1.05469,0.964843 m 0.20703,-3.273437 h -1.82422 V 45.96875 h -1.52343 V 53.125 h 3.34765 c 1.55469,0 2.40235,-1.050781 2.40235,-2.304687 0,-1.246094 -0.85938,-2.308594 -2.40235,-2.308594 m 3.00391,4.613281 h 1.53515 v -7.15625 h -1.53515 z m -10.37891,-1.320312 h -1.96484 v -1.664063 h 1.96484 c 0.59766,0 0.92188,0.386719 0.92188,0.839844 0,0.515625 -0.34375,0.824219 -0.92188,0.824219 m -1.96484,-4.527344 h 1.91015 c 0.51172,0 0.83985,0.332031 0.83985,0.785156 0,0.449219 -0.32813,0.769531 -0.83985,0.769531 h -1.91015 z m 3.07031,2.15625 c 0.67578,-0.136719 1.23047,-0.738281 1.23047,-1.640625 0,-0.953125 -0.69531,-1.824219 -2.05859,-1.824219 h -3.76563 V 53.125 h 3.88672 c 1.35937,0 2.07812,-0.859375 2.07812,-1.929687 0,-0.902344 -0.60937,-1.640625 -1.37109,-1.761719 m -9.5625,2.46875 c -1.316406,0 -2.167969,-1.019531 -2.167969,-2.347656 0,-1.34375 0.851563,-2.351563 2.167969,-2.351563 1.32422,0 2.17969,1.007813 2.17969,2.351563 0,1.328125 -0.85547,2.347656 -2.17969,2.347656 m 0,-6.050781 c -2.152344,0 -3.734375,1.546875 -3.734375,3.703125 0,2.15625 1.582031,3.699218 3.734375,3.699218 2.16797,0 3.75,-1.542968 3.75,-3.699218 0,-2.15625 -1.58203,-3.703125 -3.75,-3.703125 m -6.476562,2.929687 h -3.378907 v -2.8125 H 88.808594 V 53.125 h 1.523437 v -3.003906 h 3.378907 V 53.125 h 1.535156 V 45.96875 H 93.710938 Z M 82.9375,49.242188 H 81.316406 V 47.308594 H 82.9375 c 0.601563,0 1.050781,0.367187 1.050781,0.964844 0,0.59375 -0.449218,0.96875 -1.050781,0.96875 M 83.140625,45.96875 H 79.792969 V 53.125 h 1.523437 v -2.542969 h 1.824219 c 1.546875,0 2.402344,-1.0625 2.402344,-2.308593 0,-1.253907 -0.847656,-2.304688 -2.402344,-2.304688 m -10.261719,4.625 v -4.625 H 71.351563 V 53.125 h 1.46875 l 3.414062,-4.796875 V 53.125 h 1.527344 V 45.96875 H 76.191406 Z M 65.640625,50.292969 63.902344,45.96875 H 61.769531 V 53.125 h 1.519532 V 48.113281 L 65.308594,53.125 h 0.667969 l 2.015625,-5.011719 V 53.125 h 1.53125 v -7.15625 h -2.144532"
       style="fill:#008acf;fill-opacity:1;fill-rule:nonzero;stroke:none" />
    <path
       id="path15"
       d="m 153.82422,57.53125 -3.31641,4.625 v -4.625 h -1.52344 v 7.15625 h 1.47266 l 3.41406,-4.792969 V 64.6875 h 1.51953 v -7.15625 z m -1.62891,-0.332031 c 0.77344,0 1.44922,-0.363281 1.875,-0.941406 L 153.47266,55.75 c -0.30469,0.421875 -0.74219,0.667969 -1.27735,0.667969 -0.55859,0 -1,-0.257813 -1.28906,-0.667969 l -0.60156,0.507813 c 0.4375,0.578125 1.1289,0.941406 1.89062,0.941406 m -9.72656,7.488281 h 5.0625 v -1.339844 h -3.53906 v -1.621093 h 3.46875 v -1.339844 h -3.46875 V 58.875 h 3.53906 v -1.34375 h -5.0625 z m -6.79688,-5.8125 h 2.09375 v 5.8125 h 1.53516 V 58.875 h 2.07813 v -1.34375 h -5.70704 z m -3.61328,-0.109375 c 0.74219,0 1.38282,0.460938 1.6836,1.042969 l 1.30859,-0.644531 c -0.50391,-0.890625 -1.41406,-1.75 -2.99219,-1.75 -2.14453,0 -3.8125,1.503906 -3.8125,3.703125 0,2.199218 1.66797,3.699218 3.8125,3.699218 1.57813,0 2.48047,-0.867187 2.99219,-1.757812 l -1.30859,-0.632813 c -0.30078,0.589844 -0.94141,1.042969 -1.6836,1.042969 -1.29687,0 -2.24218,-1 -2.24218,-2.351562 0,-1.351563 0.94531,-2.351563 2.24218,-2.351563 m -8.32812,4.703125 c -1.32422,0 -2.16797,-1.023437 -2.16797,-2.351562 0,-1.339844 0.84375,-2.351563 2.16797,-2.351563 1.32031,0 2.17578,1.011719 2.17578,2.351563 0,1.328125 -0.85547,2.351562 -2.17578,2.351562 m 0,-6.054687 c -2.16016,0 -3.73438,1.546875 -3.73438,3.703125 0,2.15625 1.57422,3.699218 3.73438,3.699218 2.16406,0 3.74219,-1.542968 3.74219,-3.699218 0,-2.15625 -1.57813,-3.703125 -3.74219,-3.703125 M 117.25,60.34375 h -3.38281 v -2.8125 h -1.52344 v 7.15625 h 1.52344 V 61.683594 H 117.25 V 64.6875 h 1.53516 V 57.53125 H 117.25 Z m -6.07422,-2.8125 h -1.89062 l -2.26172,2.875 v -2.875 h -1.53516 v 2.875 l -2.27344,-2.875 h -1.8789 l 2.84375,3.359375 -3.02735,3.796875 h 1.86719 l 2.16797,-2.863281 0.30078,0.367187 V 64.6875 h 1.53516 v -2.496094 l 0.30078,-0.367187 2.16797,2.863281 h 1.86719 l -3.02735,-3.796875 z m -13.976561,5.9375 c -1.320313,0 -2.167969,-1.023437 -2.167969,-2.351562 0,-1.339844 0.847656,-2.351563 2.167969,-2.351563 1.316406,0 2.179687,1.011719 2.179687,2.351563 0,1.328125 -0.863281,2.351562 -2.179687,2.351562 m 0,-6.054687 c -2.15625,0 -3.734375,1.546875 -3.734375,3.703125 0,2.15625 1.578125,3.699218 3.734375,3.699218 2.164062,0 3.746091,-1.542968 3.746091,-3.699218 0,-2.15625 -1.582029,-3.703125 -3.746091,-3.703125 M 88.144531,61.859375 86.40625,57.53125 h -2.136719 v 7.15625 h 1.527344 v -5.007812 l 2.011719,5.007812 h 0.667969 l 2.015625,-5.007812 V 64.6875 h 1.535156 V 57.53125 H 89.882813 Z M 80.863281,61 c 0.785157,-0.140625 1.554688,-0.730469 1.554688,-1.632812 0,-1.191407 -1.15625,-1.941407 -2.832031,-1.941407 -1.253907,0 -2.273438,0.484375 -2.855469,1.136719 l 0.761719,0.953125 C 78,59.035156 78.738281,58.777344 79.4375,58.777344 c 0.816406,0 1.457031,0.28125 1.457031,0.847656 0,0.527344 -0.609375,0.761719 -1.457031,0.761719 h -1.449219 v 1.339844 H 79.4375 c 1.070313,0 1.574219,0.257812 1.574219,0.828125 0,0.539062 -0.546875,0.914062 -1.488281,0.914062 -0.699219,0 -1.601563,-0.300781 -2.09375,-0.816406 l -0.792969,1.019531 c 0.527344,0.640625 1.628906,1.144531 2.949219,1.144531 1.707031,0 2.941406,-0.867187 2.941406,-2.097656 0,-1.078125 -0.945313,-1.644531 -1.664063,-1.71875 m -8.464843,2.46875 c -1.316407,0 -2.167969,-1.023437 -2.167969,-2.351562 0,-1.339844 0.851562,-2.351563 2.167969,-2.351563 1.320312,0 2.179687,1.011719 2.179687,2.351563 0,1.328125 -0.859375,2.351562 -2.179687,2.351562 m 0,-6.054687 c -2.15625,0 -3.734375,1.546875 -3.734375,3.703125 0,2.15625 1.578125,3.699218 3.734375,3.699218 2.167968,0 3.746093,-1.542968 3.746093,-3.699218 0,-2.15625 -1.578125,-3.703125 -3.746093,-3.703125 m -7.144532,5.957031 h -1.964843 v -1.664063 h 1.964843 c 0.601563,0 0.921875,0.386719 0.921875,0.835938 0,0.515625 -0.34375,0.828125 -0.921875,0.828125 M 63.289063,58.84375 h 1.914062 c 0.515625,0 0.835938,0.332031 0.835938,0.78125 0,0.449219 -0.320313,0.773438 -0.835938,0.773438 H 63.289063 Z M 66.359375,61 c 0.675781,-0.140625 1.234375,-0.742187 1.234375,-1.644531 0,-0.953125 -0.699219,-1.824219 -2.0625,-1.824219 h -3.761719 v 7.15625 h 3.882813 c 1.363281,0 2.082031,-0.855469 2.082031,-1.925781 0,-0.902344 -0.613281,-1.644531 -1.375,-1.761719"
       style="fill:#008acf;fill-opacity:1;fill-rule:nonzero;stroke:none" />
    <g
       id="g19"
       clip-rule="nonzero"
       clip-path="url(#clip1)">
      <path
         id="path17"
         d="m 54.769531,24.640625 c -1.363281,0 -2.46875,-1.105469 -2.46875,-2.46875 0,-1.363281 1.105469,-2.46875 2.46875,-2.46875 1.363282,0 2.46875,1.105469 2.46875,2.46875 0,1.363281 -1.105468,2.46875 -2.46875,2.46875 M 26.410156,9.5 c -2.042968,0 -3.699218,-1.65625 -3.699218,-3.703125 0,-2.042969 1.65625,-3.699219 3.699218,-3.699219 2.046875,0 3.703125,1.65625 3.703125,3.699219 0,2.046875 -1.65625,3.703125 -3.703125,3.703125 m 28.359375,6.871094 c -1.699218,0 -3.226562,0.734375 -4.292968,1.898437 L 31.9375,7.566406 C 32.113281,7.007813 32.210938,6.414063 32.210938,5.796875 32.210938,2.597656 29.613281,0 26.410156,0 c -3.203125,0 -5.800781,2.597656 -5.800781,5.796875 0,3.203125 2.597656,5.800781 5.800781,5.800781 1.699219,0 3.230469,-0.730468 4.292969,-1.894531 L 49.246094,20.40625 c -0.179688,0.558594 -0.277344,1.152344 -0.277344,1.765625 0,0.972656 0.242188,1.890625 0.667969,2.699219 L 29.957031,41.382813 c -0.980468,-0.761719 -2.210937,-1.214844 -3.550781,-1.214844 -3.199219,0 -5.796875,2.597656 -5.796875,5.800781 0,3.203125 2.597656,5.800781 5.796875,5.800781 3.207031,0 5.804688,-2.597656 5.804688,-5.800781 0,-0.972656 -0.242188,-1.890625 -0.667969,-2.695312 L 51.222656,26.761719 c 0.984375,0.757812 2.210938,1.210937 3.546875,1.210937 3.207032,0 5.800782,-2.597656 5.800782,-5.800781 0,-3.203125 -2.59375,-5.800781 -5.800782,-5.800781 M 26.40625,68.921875 C 13.753906,68.921875 3.457031,58.625 3.457031,45.96875 c 0,-12.65625 10.296875,-22.953125 22.949219,-22.953125 v -3.457031 c -7.050781,0 -13.679687,2.746094 -18.671875,7.734375 C 2.75,32.285156 0,38.914063 0,45.96875 c 0,7.054688 2.75,13.6875 7.734375,18.675781 4.992188,4.988282 11.621094,7.734375 18.671875,7.734375 7.058594,0 13.6875,-2.746093 18.679688,-7.734375 4.984375,-4.988281 7.734375,-11.621093 7.734375,-18.675781 h -3.457032 c 0,12.65625 -10.296875,22.953125 -22.957031,22.953125"
         style="fill:#008acf;fill-opacity:1;fill-rule:nonzero;stroke:none" />
    </g>
    <path
       id="path21"
       d="m 172.66797,64.6875 h 0.98828 V 7.429688 h -0.98828 z m 0,0"
       style="fill:#008acf;fill-opacity:1;fill-rule:nonzero;stroke:none" />
    <g
       id="g870">
      <g
         transform="translate(-7.7845927,-1.0862273)"
         id="g875">
        <path
           style="clip-rule:nonzero;fill:#ffffff;fill-opacity:1;fill-rule:nonzero;stroke:none"
           d="M 220.16406,61.378906 V 57.96875 h -2.04687 v 6.722656 h 1.90234 l 2.21875,-3.378906 v 3.378906 h 2.04688 V 57.96875 h -1.89844 z M 208.35156,60.6875 c 0,0.246094 -0.12109,0.714844 -0.75,0.714844 h -0.72265 V 59.625 h 0.8125 c 0.21875,0 0.66015,0.179688 0.66015,0.703125 z m -0.4414,-2.71875 h -3.19532 v 6.722656 h 2.16407 v -1.648437 h 1.03125 c 1.40234,0 2.54296,-0.769531 2.54296,-2.144531 v -0.785157 c 0,-1.371093 -1.14062,-2.144531 -2.54296,-2.144531 m 30.6289,3.558594 c 0,1.023437 -0.26953,1.171875 -0.65625,1.351562 -0.16797,0.07422 -0.625,0.05859 -0.625,0.05859 v 1.753906 h 0.84766 c 1.82031,0 2.49219,-1.058593 2.51953,-3.429687 0.008,-0.539063 -0.004,-1.066406 0,-1.539063 h 1.21484 v 4.96875 H 244 V 57.96875 h -5.46094 z m -36.72656,0.902344 c 0,0.445312 -0.36719,0.808593 -0.8125,0.808593 h -0.18359 c -0.44922,0 -0.8086,-0.363281 -0.8086,-0.808593 v -2.175782 c 0,-0.445312 0.35938,-0.8125 0.8086,-0.8125 H 201 c 0.44531,0 0.8125,0.367188 0.8125,0.8125 z m -0.375,-4.570313 h -1.05859 c -1.39844,0 -2.54297,1 -2.54297,2.542969 v 1.878906 c 0,1.550781 1.14453,2.542969 2.54297,2.542969 h 1.05859 c 1.39844,0 2.54297,-1 2.54297,-2.542969 v -1.878906 c 0,-1.628906 -1.14453,-2.542969 -2.54297,-2.542969 m 29.97266,0.109375 h -2.33985 l -1.14062,2.542969 h -0.53516 V 57.96875 h -2.16406 v 6.722656 h 2.16406 v -2.386718 h 0.53125 l 1.16797,2.386718 h 2.48047 l -1.83203,-3.390625 z m 2.67968,4.171875 h 2.4336 v -1.597656 h -2.4336 v -0.820313 h 2.65625 V 57.96875 h -4.82031 v 6.722656 h 5.01953 V 62.9375 h -2.85547 z m 13.71094,0.894531 h -0.81641 v -1.464843 h 0.73047 c 0.60547,0 0.75,0.449218 0.75,0.738281 0,0.601562 -0.49609,0.726562 -0.66406,0.726562 m 0.22266,-3.105468 h -1.03907 V 57.96875 h -2.16015 v 6.722656 h 3.19922 c 1.39843,0 2.54297,-0.773437 2.54297,-2.144531 v -0.472656 c 0,-1.371094 -1.14454,-2.144531 -2.54297,-2.144531 m -33.01172,0.527343 h -1.84766 V 57.96875 h -2.16015 v 6.722656 h 2.16015 v -2.386718 h 1.84766 v 2.386718 h 2.16015 V 57.96875 h -2.16015 z m -20.07422,0 h -1.83984 V 57.96875 h -2.16407 v 6.722656 h 2.16407 v -2.386718 h 1.83984 v 2.386718 h 2.16406 V 57.96875 h -2.16406"
           id="path23" />
        <g
           id="g29"
           clip-rule="nonzero"
           clip-path="url(#clip3)">
          <path
             id="path27"
             d="m 241.60156,38.921875 c -1.9414,1.945313 -4.30469,3.320313 -6.875,4.046875 V 12.480469 c 2.57031,0.726562 4.9336,2.101562 6.875,4.046875 2.98828,2.988281 4.63672,6.96875 4.63672,11.195312 0,4.230469 -1.64844,8.210938 -4.63672,11.199219 M 210.23828,29.074219 V 12.78125 l 20.16406,13.597656 v 16.292969 z m -4.32031,13.894531 c -2.57422,-0.722656 -4.9336,-2.101562 -6.875,-4.042969 -2.99219,-2.992187 -4.64063,-6.96875 -4.64063,-11.199218 0,-4.230469 1.64844,-8.210938 4.64063,-11.199219 1.9414,-1.945313 4.30078,-3.320313 6.875,-4.046875 z M 230.40234,7.5625 V 21.164063 L 210.23828,7.566406 c -11.13281,0 -20.16016,9.027344 -20.16016,20.160157 0,11.132812 9.02735,20.160156 20.16016,20.160156 V 34.285156 l 20.16406,13.601563 c 11.13282,0 20.16407,-9.027344 20.16407,-20.164063 0,-11.132812 -9.03125,-20.160156 -20.16407,-20.160156"
             style="fill:#ffffff;fill-opacity:1;fill-rule:nonzero;stroke:none" />
        </g>
      </g>
    </g>
  </g>
</svg>
