<svg width="32" height="32" viewBox="0 0 32 32" fill="none" xmlns="http://www.w3.org/2000/svg">
<rect width="32" height="32" rx="4" fill="white"/>
<path d="M20.1288 26.6663H11.8725C8.27078 26.6663 5.33398 23.7295 5.33398 20.1278V11.8715C5.33398 8.2698 8.27078 5.33301 11.8725 5.33301H20.1565C23.7305 5.33301 26.6673 8.2698 26.6673 11.8715V20.1555C26.6673 23.7295 23.7305 26.6663 20.1288 26.6663ZM11.8725 6.93993C9.15736 6.93993 6.94091 9.15638 6.94091 11.8715V20.1555C6.94091 22.8707 9.15736 25.0871 11.8725 25.0871H20.1565C22.8716 25.0871 25.0881 22.8707 25.0881 20.1555V11.8715C25.0881 9.15638 22.8716 6.93993 20.1565 6.93993H11.8725Z" fill="#0A011B"/>
<path d="M16.0003 21.4029C13.0358 21.4029 10.5977 18.9925 10.5977 16.0003C10.5977 13.0358 13.0358 10.5977 16.0003 10.5977C18.9925 10.5977 21.4029 13.0358 21.4029 16.0003C21.4029 18.9925 18.9925 21.4029 16.0003 21.4029ZM16.0003 12.2323C13.9223 12.2323 12.2323 13.9223 12.2323 16.0003C12.2323 18.0782 13.9223 19.7682 16.0003 19.7682C18.0782 19.7682 19.7682 18.0782 19.7682 16.0003C19.7682 13.9223 18.0782 12.2323 16.0003 12.2323Z" fill="#0A011B"/>
<path d="M23.3982 10.0155C23.3982 10.7913 22.761 11.4285 21.9853 11.4285C21.2095 11.4285 20.5723 10.7913 20.5723 10.0155C20.5723 9.23977 21.2095 8.60254 21.9853 8.60254C22.761 8.60254 23.3982 9.23977 23.3982 10.0155Z" fill="#0A011B"/>
</svg>
