<svg width="69" height="69" viewBox="0 0 69 69" fill="none" xmlns="http://www.w3.org/2000/svg">
<g clip-path="url(#clip0)">
<path d="M53.549 42.425C52.9896 42.425 52.5363 42.8784 52.5363 43.4377V48.9378C52.5363 58.8833 44.4451 66.9745 34.4996 66.9745C24.5542 66.9745 16.4629 58.8833 16.4629 48.9378V28.9245C16.4629 28.3652 16.0096 27.9117 15.4502 27.9117C14.8909 27.9117 14.4375 28.3652 14.4375 28.9245V48.9378C14.4375 60.0001 23.4373 69 34.4996 69C45.5619 69 54.5617 60.0001 54.5617 48.9378V43.4377C54.5617 42.8784 54.1084 42.425 53.549 42.425Z" fill="#05FFFF"/>
<path d="M34.4996 0C23.4373 0 14.4375 8.99984 14.4375 20.0621V24.8736C14.4375 25.4329 14.8909 25.8863 15.4502 25.8863C16.0096 25.8863 16.4629 25.4329 16.4629 24.8736V20.0621C16.4629 10.4568 24.0105 2.5819 33.4864 2.05447V9.30649C31.7588 9.75655 30.4798 11.3298 30.4798 13.1963V19.0391C30.4798 20.9057 31.7588 22.4789 33.4864 22.9289V30.0976C33.4864 30.6569 33.9397 31.1104 34.4991 31.1104C35.0585 31.1104 35.5118 30.6569 35.5118 30.0976V22.9289C37.2394 22.4789 38.5184 20.9057 38.5184 19.0391V13.1963C38.5184 11.3298 37.2394 9.75655 35.5118 9.30649V2.05434C44.9882 2.58122 52.5363 10.4563 52.5363 20.062V39.3867C52.5363 39.946 52.9896 40.3994 53.549 40.3994C54.1084 40.3994 54.5617 39.946 54.5617 39.3867V20.0621C54.5617 8.99984 45.5619 0 34.4996 0ZM36.4929 13.1963V19.0391C36.4929 20.1385 35.5985 21.033 34.4991 21.033C33.3997 21.033 32.5052 20.1385 32.5052 19.0391V13.1963C32.5052 12.0969 33.3997 11.2024 34.4991 11.2024C35.5985 11.2024 36.4929 12.0969 36.4929 13.1963Z" fill="white"/>
</g>
<defs>
<clipPath id="clip0">
<rect width="69" height="69" fill="white"/>
</clipPath>
</defs>
</svg>
