<svg width="67" height="67" viewBox="0 0 67 67" fill="none" xmlns="http://www.w3.org/2000/svg">
<g clip-path="url(#clip0)">
<path d="M43.6754 27.9139C42.3409 27.9139 41.1936 27.5286 40.3337 26.6688C36.766 23.0982 41.3862 14.6255 47.5474 8.46432C53.7114 2.30311 62.1925 -2.31152 65.7519 1.25065C69.3196 4.82119 64.6994 13.2939 58.5382 19.4551C53.8621 24.1284 47.8601 27.9139 43.6754 27.9139ZM62.3907 2.79165C59.8475 2.79165 54.7778 5.18132 49.5211 10.4352C42.9691 16.9901 40.8725 23.2574 42.3074 24.6923C43.7479 26.1244 50.0069 24.0307 56.5617 17.4786C63.1137 10.9238 65.2103 4.65648 63.7754 3.22157C63.4906 2.93961 63.0188 2.79165 62.3907 2.79165Z" fill="#05FFFF"/>
<path d="M62.4074 27.9138C58.2227 27.9138 52.2206 24.1283 47.5474 19.455C41.3862 13.2938 36.766 4.82113 40.3337 1.25059C43.9043 -2.31437 52.3742 2.30305 58.5382 8.46426C64.7022 14.6255 69.3196 23.0982 65.7519 26.6687C64.8892 27.5285 63.7418 27.9138 62.4074 27.9138ZM42.3074 3.22151C40.8725 4.65922 42.9691 10.9265 49.5211 17.4785C56.0787 24.0306 62.3404 26.1271 63.7753 24.6922C65.2103 23.2545 63.1137 16.9872 56.5617 10.4352C50.0069 3.88313 43.7479 1.79497 42.3074 3.22151Z" fill="#05FFFF"/>
<path d="M15.3542 67H4.1875C1.87879 67 0 65.1212 0 62.8125V20.9375C0 18.6288 1.87879 16.75 4.1875 16.75H15.3542C17.6629 16.75 19.5417 18.6288 19.5417 20.9375V62.8125C19.5417 65.1212 17.6629 67 15.3542 67ZM4.1875 19.5417C3.417 19.5417 2.79167 20.1698 2.79167 20.9375V62.8125C2.79167 63.5802 3.417 64.2083 4.1875 64.2083H15.3542C16.1247 64.2083 16.75 63.5802 16.75 62.8125V20.9375C16.75 20.1698 16.1247 19.5417 15.3542 19.5417H4.1875Z" fill="white"/>
<path d="M32.1042 67H20.9375C18.6288 67 16.75 65.1212 16.75 62.8125V4.1875C16.75 1.87879 18.6288 0 20.9375 0H32.1042C32.8747 0 33.5 0.625333 33.5 1.39583C33.5 2.16633 32.8747 2.79167 32.1042 2.79167H20.9375C20.167 2.79167 19.5417 3.41979 19.5417 4.1875V62.8125C19.5417 63.5802 20.167 64.2083 20.9375 64.2083H32.1042C32.8747 64.2083 33.5 63.5802 33.5 62.8125V32.1042C33.5 31.3337 34.1253 30.7083 34.8958 30.7083C35.6663 30.7083 36.2917 31.3337 36.2917 32.1042V62.8125C36.2917 65.1212 34.4129 67 32.1042 67Z" fill="white"/>
<path d="M48.8542 67H37.6875C35.3788 67 33.5 65.1212 33.5 62.8125V43.2708C33.5 42.5003 34.1253 41.875 34.8958 41.875C35.6663 41.875 36.2917 42.5003 36.2917 43.2708V62.8125C36.2917 63.5802 36.917 64.2083 37.6875 64.2083H48.8542C49.6247 64.2083 50.25 63.5802 50.25 62.8125V34.8958C50.25 34.1253 50.8753 33.5 51.6458 33.5C52.4163 33.5 53.0417 34.1253 53.0417 34.8958V62.8125C53.0417 65.1212 51.1629 67 48.8542 67Z" fill="white"/>
<path d="M18.1458 55.8334H1.39583C0.625333 55.8334 0 55.2081 0 54.4376C0 53.6671 0.625333 53.0417 1.39583 53.0417H18.1458C18.9163 53.0417 19.5417 53.6671 19.5417 54.4376C19.5417 55.2081 18.9163 55.8334 18.1458 55.8334Z" fill="white"/>
<path d="M18.1458 47.4584H1.39583C0.625333 47.4584 0 46.8331 0 46.0626C0 45.2921 0.625333 44.6667 1.39583 44.6667H18.1458C18.9163 44.6667 19.5417 45.2921 19.5417 46.0626C19.5417 46.8331 18.9163 47.4584 18.1458 47.4584Z" fill="white"/>
<path d="M51.6458 47.4584H34.8958C34.1253 47.4584 33.5 46.8331 33.5 46.0626C33.5 45.2921 34.1253 44.6667 34.8958 44.6667H51.6458C52.4163 44.6667 53.0417 45.2921 53.0417 46.0626C53.0417 46.8331 52.4163 47.4584 51.6458 47.4584Z" fill="white"/>
<path d="M26.5208 55.8333C25.7503 55.8333 25.125 55.208 25.125 54.4375V9.77083C25.125 9.00033 25.7503 8.375 26.5208 8.375C27.2913 8.375 27.9167 9.00033 27.9167 9.77083V54.4375C27.9167 55.208 27.2913 55.8333 26.5208 55.8333Z" fill="#05FFFF"/>
<path d="M51.6458 55.8334H34.8958C34.1253 55.8334 33.5 55.2081 33.5 54.4376C33.5 53.6671 34.1253 53.0417 34.8958 53.0417H51.6458C52.4163 53.0417 53.0417 53.6671 53.0417 54.4376C53.0417 55.2081 52.4163 55.8334 51.6458 55.8334Z" fill="white"/>
</g>
<defs>
<clipPath id="clip0">
<rect width="67" height="67" fill="white"/>
</clipPath>
</defs>
</svg>
