<svg width="67" height="67" viewBox="0 0 67 67" fill="none" xmlns="http://www.w3.org/2000/svg">
<path d="M41.875 29.3125H47.1094C47.387 29.3125 47.6533 29.2022 47.8496 29.0059C48.046 28.8096 48.1562 28.5433 48.1562 28.2656C48.1562 27.988 48.046 27.7217 47.8496 27.5254C47.6533 27.329 47.387 27.2188 47.1094 27.2188H41.875C41.5974 27.2188 41.3311 27.329 41.1347 27.5254C40.9384 27.7217 40.8281 27.988 40.8281 28.2656C40.8281 28.5433 40.9384 28.8096 41.1347 29.0059C41.3311 29.2022 41.5974 29.3125 41.875 29.3125Z" fill="#05FFFF"/>
<path d="M63.8594 27.2188C63.5817 27.2188 63.3154 27.329 63.1191 27.5254C62.9228 27.7217 62.8125 27.988 62.8125 28.2656V62.8125H9.42188C8.38661 62.8125 7.3746 62.5055 6.51381 61.9304C5.65302 61.3552 4.98212 60.5377 4.58594 59.5812C4.18977 58.6248 4.08611 57.5723 4.28808 56.5569C4.49005 55.5416 4.98857 54.6089 5.72061 53.8769C6.45265 53.1448 7.38533 52.6463 8.4007 52.4443C9.41607 52.2424 10.4685 52.346 11.425 52.7422C12.3814 53.1384 13.1989 53.8093 13.7741 54.6701C14.3493 55.5308 14.6562 56.5429 14.6562 57.5781C14.6562 57.8558 14.7665 58.1221 14.9629 58.3184C15.1592 58.5147 15.4255 58.625 15.7031 58.625C15.9808 58.625 16.2471 58.5147 16.4434 58.3184C16.6397 58.1221 16.75 57.8558 16.75 57.5781V29.3125H19.8906C20.1683 29.3125 20.4346 29.2022 20.6309 29.0059C20.8272 28.8096 20.9375 28.5433 20.9375 28.2656C20.9375 27.988 20.8272 27.7217 20.6309 27.5254C20.4346 27.329 20.1683 27.2188 19.8906 27.2188H16.75V24.0781C16.75 22.1346 15.9779 20.2706 14.6036 18.8964C13.2294 17.5221 11.3654 16.75 9.42188 16.75C7.47834 16.75 5.6144 17.5221 4.24011 18.8964C2.86582 20.2706 2.09375 22.1346 2.09375 24.0781V57.5781C2.09597 59.521 2.86875 61.3836 4.24256 62.7574C5.61637 64.1313 7.47902 64.904 9.42188 64.9062H63.8594C64.137 64.9062 64.4033 64.796 64.5996 64.5996C64.796 64.4033 64.9062 64.137 64.9062 63.8594V28.2656C64.9062 27.988 64.796 27.7217 64.5996 27.5254C64.4033 27.329 64.137 27.2188 63.8594 27.2188ZM4.1875 24.0781C4.1875 22.6899 4.73898 21.3585 5.72061 20.3769C6.70225 19.3952 8.03363 18.8438 9.42188 18.8438C10.8101 18.8438 12.1415 19.3952 13.1231 20.3769C14.1048 21.3585 14.6562 22.6899 14.6562 24.0781V52.4484C13.9746 51.7509 13.1604 51.1966 12.2615 50.8182C11.3626 50.4398 10.3972 50.2449 9.42188 50.2449C8.44658 50.2449 7.48112 50.4398 6.58223 50.8182C5.68334 51.1966 4.86915 51.7509 4.1875 52.4484V24.0781Z" fill="white"/>
<path d="M50.3243 40.1707L51.9993 44.3582L54.5118 50.6394C54.5894 50.834 54.7235 51.0009 54.8969 51.1185C55.0702 51.236 55.2749 51.2989 55.4844 51.2989C55.6939 51.2989 55.8985 51.236 56.0719 51.1185C56.2453 51.0009 56.3794 50.834 56.4569 50.6394L58.9694 44.3582L60.6444 40.1707C60.6864 40.0588 60.7088 39.9405 60.7104 39.821C60.7104 39.8074 60.7188 39.7959 60.7188 39.7812V21.9844C60.7188 21.7067 60.6085 21.4404 60.4121 21.2441C60.2158 21.0478 59.9495 20.9375 59.6719 20.9375C59.3942 20.9375 59.1279 21.0478 58.9316 21.2441C58.7353 21.4404 58.625 21.7067 58.625 21.9844V38.7344H56.5312V14.6562H58.625V17.7969C58.625 18.0745 58.7353 18.3408 58.9316 18.5371C59.1279 18.7335 59.3942 18.8438 59.6719 18.8438C59.9495 18.8438 60.2158 18.7335 60.4121 18.5371C60.6085 18.3408 60.7188 18.0745 60.7188 17.7969V7.32812C60.7188 5.93988 60.1673 4.6085 59.1856 3.62686C58.204 2.64523 56.8726 2.09375 55.4844 2.09375C54.0961 2.09375 52.7647 2.64523 51.7831 3.62686C50.8015 4.6085 50.25 5.93988 50.25 7.32812V39.7812C50.25 39.7959 50.2573 39.8074 50.2584 39.8221C50.2601 39.9412 50.2824 40.0592 50.3243 40.1707ZM54.5181 45.0156H56.4506L55.4844 47.4318L54.5181 45.0156ZM57.2881 42.9219H53.6806L52.8431 40.8281H58.1256L57.2881 42.9219ZM54.4375 38.7344H52.3438V14.6562H54.4375V38.7344ZM52.3438 12.5625V10.4688H58.625V12.5625H52.3438ZM52.3438 7.32812C52.3438 6.49518 52.6746 5.69635 53.2636 5.10737C53.8526 4.51839 54.6514 4.1875 55.4844 4.1875C56.3173 4.1875 57.1161 4.51839 57.7051 5.10737C58.2941 5.69635 58.625 6.49518 58.625 7.32812V8.375H52.3438V7.32812Z" fill="white"/>
<path d="M25.1261 22.7172V23.2207C24.5142 23.4339 23.9837 23.8323 23.6084 24.3605C23.233 24.8888 23.0314 25.5207 23.0314 26.1687C23.0314 26.8168 23.233 27.4487 23.6084 27.977C23.9837 28.5052 24.5142 28.9036 25.1261 29.1167V29.3125C25.1281 30.6366 25.5479 31.9262 26.3257 32.9977C27.1036 34.0691 28.1998 34.8677 29.4581 35.2797C28.3399 36.4035 26.9356 37.1999 25.3973 37.5828L23.8008 37.9827C22.5754 38.2855 21.5034 39.0268 20.7875 40.0664C20.0716 41.106 19.7614 42.3719 19.9156 43.6247C20.0698 44.8775 20.6777 46.0304 21.6243 46.8654C22.5709 47.7004 23.7906 48.1596 25.0528 48.1563H27.2199C27.4975 48.1563 27.7638 48.046 27.9601 47.8496C28.1564 47.6533 28.2667 47.387 28.2667 47.1094C28.2667 46.8317 28.1564 46.5655 27.9601 46.3691C27.7638 46.1728 27.4975 46.0625 27.2199 46.0625H25.0528C24.3044 46.0618 23.582 45.7876 23.0217 45.2914C22.4614 44.7953 22.1017 44.1114 22.0103 43.3686C21.919 42.6258 22.1023 41.8752 22.5257 41.2581C22.9492 40.6409 23.5836 40.1999 24.3096 40.0179L25.906 39.619C28.3316 39.0106 30.4702 37.578 31.9559 35.5665C33.5199 35.4282 34.9754 34.7097 36.0363 33.5524C37.0972 32.395 37.6866 30.8825 37.6886 29.3125V29.1199C38.3006 28.9067 38.831 28.5084 39.2063 27.9801C39.5817 27.4519 39.7834 26.8199 39.7834 26.1719C39.7834 25.5239 39.5817 24.8919 39.2063 24.3637C38.831 23.8354 38.3006 23.4371 37.6886 23.2239V22.7172C39.3138 21.2677 40.3848 19.2985 40.7184 17.1465C41.052 14.9945 40.6275 12.7935 39.5175 10.92C39.3763 10.6808 39.1459 10.5075 38.8769 10.4382C38.608 10.3688 38.3225 10.4092 38.0833 10.5504C37.8441 10.6916 37.6708 10.922 37.6015 11.191C37.5322 11.46 37.5726 11.7454 37.7137 11.9846C38.613 13.5003 38.9334 15.2902 38.6159 17.0237C38.2984 18.7572 37.3644 20.3173 35.9864 21.4159C35.8642 21.514 35.7655 21.6384 35.6978 21.7797C35.63 21.921 35.5948 22.0758 35.5949 22.2325V23.0313H34.6705L35.5886 14.7714C35.608 14.5968 35.5831 14.4202 35.5163 14.2577C35.4494 14.0953 35.3428 13.9523 35.2062 13.8418C35.0696 13.7314 34.9074 13.6571 34.7346 13.6258C34.5618 13.5946 34.3838 13.6073 34.2172 13.6628L31.4074 14.5997L28.5976 13.6628C28.4309 13.6073 28.253 13.5946 28.0801 13.6258C27.9073 13.6571 27.7451 13.7314 27.6085 13.8418C27.4719 13.9523 27.3653 14.0953 27.2985 14.2577C27.2316 14.4202 27.2068 14.5968 27.2261 14.7714L28.1443 23.0313H27.2199V22.2356C27.2199 22.0789 27.1847 21.9242 27.117 21.7828C27.0492 21.6415 26.9506 21.5172 26.8283 21.4191C25.3782 20.2635 24.4207 18.6006 24.149 16.7664C23.8774 14.9321 24.3119 13.0631 25.3648 11.5368C26.4177 10.0105 28.0106 8.94061 29.8218 8.5432C31.633 8.14579 33.5275 8.45047 35.1227 9.39571C35.3619 9.5369 35.6474 9.57728 35.9164 9.50797C36.1853 9.43867 36.4158 9.26536 36.5569 9.02616C36.6981 8.78697 36.7385 8.50149 36.6692 8.23252C36.5999 7.96355 36.4266 7.73313 36.1874 7.59195C34.1748 6.40708 31.7936 6.01248 29.5064 6.4848C27.2192 6.95711 25.1891 8.26263 23.8105 10.1478C22.4318 12.033 21.803 14.3632 22.0461 16.686C22.2893 19.0088 23.387 21.1584 25.1261 22.7172ZM31.4074 33.5C30.2968 33.5 29.2317 33.0588 28.4464 32.2735C27.661 31.4882 27.2199 30.4231 27.2199 29.3125H35.5949C35.5949 30.4231 35.1537 31.4882 34.3684 32.2735C33.5831 33.0588 32.518 33.5 31.4074 33.5ZM29.4884 16.1669L31.0766 16.6966C31.2913 16.7681 31.5234 16.7681 31.7382 16.6966L33.3263 16.1669L32.5642 23.0313H30.2558L29.4884 16.1669ZM29.3136 25.125H36.6417C36.9194 25.125 37.1857 25.2353 37.382 25.4316C37.5783 25.628 37.6886 25.8942 37.6886 26.1719C37.6886 26.4495 37.5783 26.7158 37.382 26.9121C37.1857 27.1085 36.9194 27.2188 36.6417 27.2188H26.173C25.8953 27.2188 25.6291 27.1085 25.4327 26.9121C25.2364 26.7158 25.1261 26.4495 25.1261 26.1719C25.1261 25.8942 25.2364 25.628 25.4327 25.4316C25.6291 25.2353 25.8953 25.125 26.173 25.125H29.3136Z" fill="#05FFFF"/>
<path d="M18.8438 16.75C19.4219 16.75 19.8906 16.2813 19.8906 15.7031C19.8906 15.125 19.4219 14.6562 18.8438 14.6562C18.2656 14.6562 17.7969 15.125 17.7969 15.7031C17.7969 16.2813 18.2656 16.75 18.8438 16.75Z" fill="white"/>
<path d="M43.9688 16.75C44.5469 16.75 45.0156 16.2813 45.0156 15.7031C45.0156 15.125 44.5469 14.6562 43.9688 14.6562C43.3906 14.6562 42.9219 15.125 42.9219 15.7031C42.9219 16.2813 43.3906 16.75 43.9688 16.75Z" fill="white"/>
<path d="M31.4062 4.1875C31.9844 4.1875 32.4531 3.7188 32.4531 3.14062C32.4531 2.56245 31.9844 2.09375 31.4062 2.09375C30.8281 2.09375 30.3594 2.56245 30.3594 3.14062C30.3594 3.7188 30.8281 4.1875 31.4062 4.1875Z" fill="white"/>
<path d="M20.0039 10.3284C20.1832 10.432 20.3892 10.48 20.5958 10.4664C20.8024 10.4529 21.0004 10.3784 21.1646 10.2524C21.3289 10.1263 21.4521 9.9544 21.5187 9.75834C21.5852 9.56227 21.5921 9.35088 21.5386 9.15088C21.485 8.95088 21.3733 8.77126 21.2176 8.63474C21.0619 8.49822 20.8693 8.41092 20.664 8.3839C20.4587 8.35687 20.25 8.39132 20.0643 8.4829C19.8786 8.57448 19.7242 8.71907 19.6207 8.89839C19.4819 9.13883 19.4443 9.42457 19.5161 9.69275C19.588 9.96093 19.7634 10.1896 20.0039 10.3284Z" fill="white"/>
<path d="M41.7617 22.8909C41.941 22.9944 42.147 23.0425 42.3536 23.0289C42.5602 23.0154 42.7582 22.9409 42.9224 22.8149C43.0867 22.6888 43.2099 22.5169 43.2765 22.3208C43.343 22.1248 43.35 21.9134 43.2964 21.7134C43.2428 21.5134 43.1311 21.3338 42.9754 21.1972C42.8197 21.0607 42.6271 20.9734 42.4218 20.9464C42.2165 20.9194 42.0078 20.9538 41.8221 21.0454C41.6364 21.137 41.4821 21.2816 41.3785 21.4609C41.2397 21.7013 41.2021 21.9871 41.274 22.2553C41.3458 22.5234 41.5212 22.7521 41.7617 22.8909Z" fill="white"/>
<path d="M37.9594 5.83569C38.5178 5.68604 38.8492 5.112 38.6996 4.55353C38.55 3.99506 37.9759 3.66363 37.4175 3.81328C36.859 3.96292 36.5276 4.53696 36.6772 5.09543C36.8268 5.65391 37.4009 5.98533 37.9594 5.83569Z" fill="white"/>
<path d="M42.8086 10.3286C42.9879 10.225 43.1325 10.0707 43.2241 9.88496C43.3156 9.69926 43.3501 9.49057 43.3231 9.28529C43.2961 9.08001 43.2088 8.88735 43.0722 8.73168C42.9357 8.57601 42.7561 8.46432 42.5561 8.41073C42.3561 8.35714 42.1447 8.36407 41.9486 8.43062C41.7526 8.49718 41.5806 8.62039 41.4546 8.78466C41.3286 8.94893 41.2541 9.14689 41.2405 9.3535C41.227 9.56011 41.275 9.76609 41.3786 9.9454C41.5174 10.1858 41.746 10.3613 42.0142 10.4331C42.2824 10.505 42.5681 10.4674 42.8086 10.3286Z" fill="white"/>
<path d="M21.434 21.4609C21.3304 21.2816 21.1761 21.137 20.9904 21.0454C20.8047 20.9538 20.596 20.9194 20.3907 20.9464C20.1854 20.9734 19.9928 21.0607 19.8371 21.1972C19.6814 21.3338 19.5697 21.5134 19.5161 21.7134C19.4625 21.9134 19.4695 22.1248 19.536 22.3208C19.6026 22.5169 19.7258 22.6888 19.8901 22.8149C20.0543 22.9409 20.2523 23.0154 20.4589 23.0289C20.6655 23.0425 20.8715 22.9944 21.0508 22.8909C21.2913 22.7521 21.4667 22.5234 21.5385 22.2553C21.6104 21.9871 21.5728 21.7013 21.434 21.4609Z" fill="white"/>
<path d="M25.6484 5.73066C25.8277 5.62714 25.9723 5.47276 26.0639 5.28706C26.1555 5.10136 26.1899 4.89267 26.1629 4.68739C26.1359 4.48211 26.0486 4.28945 25.9121 4.13378C25.7756 3.97811 25.5959 3.86642 25.3959 3.81283C25.1959 3.75924 24.9845 3.76617 24.7885 3.83272C24.5924 3.89928 24.4205 4.02249 24.2944 4.18676C24.1684 4.35103 24.0939 4.54899 24.0804 4.7556C24.0668 4.96221 24.1149 5.16819 24.2184 5.3475C24.3572 5.58794 24.5859 5.76339 24.8541 5.83524C25.1222 5.9071 25.408 5.86948 25.6484 5.73066Z" fill="white"/>
<path d="M36.6416 56.5312H40.8291C41.1067 56.5312 41.373 56.421 41.5693 56.2246C41.7657 56.0283 41.876 55.762 41.876 55.4844V53.7246C42.2313 53.557 42.5723 53.3606 42.8956 53.1373L44.4178 54.0167C44.6582 54.1555 44.944 54.1931 45.2121 54.1212C45.4803 54.0494 45.709 53.8739 45.8478 53.6335L47.9415 50.0071C48.0804 49.7667 48.118 49.4809 48.0461 49.2128C47.9743 48.9446 47.7988 48.7159 47.5584 48.5771L46.0383 47.6988C46.0551 47.5009 46.0635 47.3051 46.0635 47.1094C46.0635 46.9136 46.0551 46.7178 46.0383 46.52L47.5584 45.6417C47.7988 45.5028 47.9743 45.2742 48.0461 45.006C48.118 44.7378 48.0804 44.4521 47.9415 44.2116L45.8478 40.5853C45.709 40.3448 45.4803 40.1694 45.2121 40.0975C44.944 40.0257 44.6582 40.0633 44.4178 40.2021L42.8956 41.0815C42.5723 40.8582 42.2313 40.6618 41.876 40.4942V38.7344C41.876 38.4567 41.7657 38.1904 41.5693 37.9941C41.373 37.7978 41.1067 37.6875 40.8291 37.6875H36.6416C36.3639 37.6875 36.0977 37.7978 35.9013 37.9941C35.705 38.1904 35.5947 38.4567 35.5947 38.7344V40.4942C35.2393 40.6618 34.8983 40.8582 34.575 41.0815L33.0529 40.2021C32.8124 40.0633 32.5267 40.0257 32.2585 40.0975C31.9903 40.1694 31.7617 40.3448 31.6229 40.5853L29.5291 44.2116C29.3903 44.4521 29.3527 44.7378 29.4245 45.006C29.4964 45.2742 29.6718 45.5028 29.9123 45.6417L31.4323 46.52C31.4156 46.7178 31.4072 46.9136 31.4072 47.1094C31.4072 47.3051 31.4156 47.5009 31.4323 47.6988L29.9123 48.5771C29.7922 48.6453 29.6869 48.7366 29.6023 48.8457C29.5177 48.9549 29.4556 49.0796 29.4194 49.2129C29.3832 49.3461 29.3737 49.4852 29.3915 49.6221C29.4093 49.759 29.454 49.891 29.5231 50.0106C29.5921 50.1302 29.6841 50.2349 29.7938 50.3188C29.9035 50.4026 30.0286 50.464 30.1621 50.4993C30.2956 50.5345 30.4347 50.5431 30.5715 50.5244C30.7083 50.5057 30.84 50.4601 30.9591 50.3903L33.0822 49.1612C33.2695 49.0532 33.4188 48.8899 33.5095 48.6936C33.6002 48.4974 33.628 48.2778 33.5889 48.0652C33.4661 47.4339 33.4661 46.7849 33.5889 46.1536C33.628 45.9409 33.6002 45.7214 33.5095 45.5251C33.4188 45.3289 33.2695 45.1655 33.0822 45.0575L31.8615 44.3519L32.9084 42.5387L34.1291 43.2443C34.3166 43.3526 34.5331 43.4001 34.7487 43.3802C34.9643 43.3603 35.1684 43.2741 35.333 43.1333C35.8211 42.7166 36.3818 42.3933 36.987 42.1796C37.1917 42.1081 37.369 41.9748 37.4947 41.7982C37.6203 41.6215 37.688 41.4102 37.6885 41.1935V39.7812H39.7822V41.1935C39.7823 41.4097 39.8494 41.6207 39.9743 41.7972C40.0991 41.9738 40.2756 42.1074 40.4794 42.1796C41.0846 42.3933 41.6453 42.7166 42.1335 43.1333C42.298 43.2741 42.5022 43.3603 42.7178 43.3802C42.9334 43.4001 43.1499 43.3526 43.3374 43.2443L44.558 42.5387L45.6049 44.3519L44.3885 45.0575C44.2011 45.1655 44.0519 45.3289 43.9612 45.5251C43.8704 45.7214 43.8427 45.9409 43.8818 46.1536C44.0046 46.7849 44.0046 47.4339 43.8818 48.0652C43.8427 48.2778 43.8704 48.4974 43.9612 48.6936C44.0519 48.8899 44.2011 49.0532 44.3885 49.1612L45.6091 49.8668L44.5622 51.68L43.3416 50.9744C43.1541 50.8662 42.9376 50.8187 42.722 50.8386C42.5064 50.8584 42.3022 50.9447 42.1377 51.0854C41.6495 51.5021 41.0888 51.8254 40.4836 52.0391C40.2798 52.1113 40.1033 52.2449 39.9785 52.4215C39.8536 52.5981 39.7865 52.809 39.7864 53.0253V54.4375H37.6885V53.0253C37.6883 52.809 37.6212 52.5981 37.4964 52.4215C37.3715 52.2449 37.1951 52.1113 36.9912 52.0391C36.386 51.8254 35.8253 51.5021 35.3372 51.0854C35.1726 50.9447 34.9685 50.8584 34.7529 50.8386C34.5372 50.8187 34.3208 50.8662 34.1333 50.9744L32.006 52.2035C31.886 52.2717 31.7807 52.363 31.6961 52.4721C31.6115 52.5812 31.5493 52.706 31.5131 52.8392C31.477 52.9725 31.4675 53.1116 31.4853 53.2485C31.5031 53.3854 31.5478 53.5174 31.6168 53.637C31.6859 53.7565 31.7779 53.8613 31.8875 53.9451C31.9972 54.029 32.1224 54.0903 32.2559 54.1256C32.3893 54.1609 32.5285 54.1695 32.6653 54.1508C32.802 54.1321 32.9338 54.0865 33.0529 54.0167L34.575 53.1373C34.8983 53.3606 35.2393 53.557 35.5947 53.7246V55.4844C35.5947 55.762 35.705 56.0283 35.9013 56.2246C36.0977 56.421 36.3639 56.5312 36.6416 56.5312Z" fill="white"/>
<path d="M41.875 47.1094C41.875 46.4882 41.6908 45.881 41.3457 45.3645C41.0006 44.8481 40.5101 44.4455 39.9362 44.2078C39.3624 43.9701 38.7309 43.9079 38.1217 44.0291C37.5124 44.1503 36.9528 44.4494 36.5136 44.8886C36.0744 45.3278 35.7753 45.8874 35.6541 46.4967C35.5329 47.1059 35.5951 47.7374 35.8328 48.3112C36.0705 48.8851 36.4731 49.3756 36.9895 49.7207C37.506 50.0658 38.1132 50.25 38.7344 50.25C39.5673 50.25 40.3661 49.9191 40.9551 49.3301C41.5441 48.7411 41.875 47.9423 41.875 47.1094ZM37.6875 47.1094C37.6875 46.9023 37.7489 46.6999 37.8639 46.5278C37.979 46.3556 38.1425 46.2214 38.3338 46.1422C38.525 46.063 38.7355 46.0422 38.9386 46.0826C39.1417 46.123 39.3282 46.2227 39.4746 46.3691C39.621 46.5155 39.7207 46.7021 39.7611 46.9051C39.8015 47.1082 39.7808 47.3187 39.7016 47.51C39.6223 47.7013 39.4881 47.8648 39.316 47.9798C39.1438 48.0949 38.9414 48.1563 38.7344 48.1563C38.4567 48.1563 38.1904 48.046 37.9941 47.8496C37.7978 47.6533 37.6875 47.387 37.6875 47.1094Z" fill="white"/>
<path d="M39.7812 60.7188H52.3438C53.4543 60.7188 54.5195 60.2776 55.3048 59.4923C56.0901 58.707 56.5312 57.6418 56.5312 56.5312V54.4375C56.5312 54.1599 56.421 53.8936 56.2246 53.6972C56.0283 53.5009 55.762 53.3906 55.4844 53.3906C55.2067 53.3906 54.9404 53.5009 54.7441 53.6972C54.5478 53.8936 54.4375 54.1599 54.4375 54.4375V56.5312C54.4375 57.0865 54.2169 57.6191 53.8243 58.0118C53.4316 58.4044 52.899 58.625 52.3438 58.625H39.7812C39.5036 58.625 39.2373 58.7353 39.041 58.9316C38.8447 59.1279 38.7344 59.3942 38.7344 59.6719C38.7344 59.9495 38.8447 60.2158 39.041 60.4121C39.2373 60.6085 39.5036 60.7188 39.7812 60.7188Z" fill="#05FFFF"/>
<path d="M20.9375 56.5312C20.9375 57.1524 21.1217 57.7596 21.4668 58.2761C21.8119 58.7926 22.3024 59.1951 22.8763 59.4328C23.4501 59.6705 24.0816 59.7327 24.6908 59.6115C25.3001 59.4903 25.8597 59.1912 26.2989 58.752C26.7381 58.3128 27.0372 57.7532 27.1584 57.144C27.2796 56.5347 27.2174 55.9033 26.9797 55.3294C26.742 54.7555 26.3394 54.265 25.823 53.9199C25.3065 53.5748 24.6993 53.3906 24.0781 53.3906C23.2452 53.3906 22.4463 53.7215 21.8574 54.3105C21.2684 54.8995 20.9375 55.6983 20.9375 56.5312ZM25.125 56.5312C25.125 56.7383 25.0636 56.9407 24.9486 57.1129C24.8335 57.285 24.67 57.4192 24.4787 57.4984C24.2875 57.5777 24.077 57.5984 23.8739 57.558C23.6708 57.5176 23.4843 57.4179 23.3379 57.2715C23.1915 57.1251 23.0918 56.9386 23.0514 56.7355C23.011 56.5324 23.0317 56.3219 23.1109 56.1306C23.1902 55.9393 23.3244 55.7758 23.4965 55.6608C23.6687 55.5458 23.8711 55.4844 24.0781 55.4844C24.3558 55.4844 24.6221 55.5947 24.8184 55.791C25.0147 55.9873 25.125 56.2536 25.125 56.5312Z" fill="#05FFFF"/>
</svg>
