<svg width="69" height="69" viewBox="0 0 69 69" fill="none" xmlns="http://www.w3.org/2000/svg">
<g clip-path="url(#clip0)">
<path d="M3.24109 36.1894L13.7992 43.47V64.4C13.7992 66.9405 15.8587 69 18.3992 69H50.5992C53.1397 69 55.1992 66.9405 55.1992 64.4V43.47L65.7562 36.1894C66.6904 35.5454 67.2482 34.4834 67.2482 33.3489C67.2482 32.2143 66.6904 31.1523 65.7562 30.5083L55.1992 23.23V4.6C55.1992 2.05949 53.1397 0 50.5992 0H18.3992C15.8587 0 13.7992 2.05949 13.7992 4.6V23.23L3.24109 30.5095C2.30746 31.1535 1.75 32.2152 1.75 33.3494C1.75 34.4836 2.30746 35.5454 3.24109 36.1894ZM55.1992 26.0222L64.451 32.4035C64.762 32.6182 64.9477 32.9721 64.9477 33.35C64.9477 33.7279 64.762 34.0818 64.451 34.2964L55.1992 40.6766V26.0222ZM43.3439 2.3L41.8684 3.8732C41.4339 4.33663 40.827 4.59969 40.1917 4.6H28.8067C28.1712 4.59919 27.5642 4.33624 27.1289 3.8732L25.6546 2.3H43.3439ZM16.0992 24.4363L16.5489 24.1258C16.9321 23.8612 17.1179 23.3916 17.0194 22.9364C16.9209 22.4812 16.5576 22.1304 16.0992 22.0478V4.6C16.0992 3.32975 17.129 2.3 18.3992 2.3H22.5013L25.451 5.4464C26.322 6.3719 27.5358 6.89769 28.8067 6.9H40.1917C41.4628 6.89851 42.6769 6.37259 43.5474 5.4464L46.4972 2.3H50.5992C51.8695 2.3 52.8992 3.32975 52.8992 4.6V22.0478C52.4409 22.1304 52.0776 22.4812 51.9791 22.9364C51.8806 23.3916 52.0664 23.8612 52.4496 24.1258L52.8992 24.4363V42.2613L35.1513 54.5031C34.7584 54.7739 34.239 54.7739 33.846 54.5031L16.0992 42.2636V24.4363ZM16.0992 45.057L32.5442 56.396C33.7253 57.204 35.2812 57.204 36.4623 56.396L52.8992 45.057V58.65C52.8992 59.9203 51.8695 60.95 50.5992 60.95H18.3992C17.129 60.95 16.0992 59.9203 16.0992 58.65V45.057ZM16.0992 62.6106C16.7954 63.0245 17.5893 63.2452 18.3992 63.25H50.5992C51.4091 63.2452 52.2031 63.0245 52.8992 62.6106V64.4C52.8992 65.6702 51.8695 66.7 50.5992 66.7H18.3992C17.129 66.7 16.0992 65.6702 16.0992 64.4V62.6106ZM4.54749 32.4035L13.7992 26.0199V40.6778L4.54634 34.2964C4.23529 34.0818 4.04959 33.7279 4.04959 33.35C4.04959 32.9721 4.23529 32.6182 4.54634 32.4035H4.54749Z" fill="white"/>
<path d="M26.933 16.7198C27.1655 16.7193 27.3925 16.6483 27.5839 16.5162L29.7907 14.9936C30.1403 14.7651 30.3386 14.3651 30.3086 13.9485C30.2786 13.5319 30.0252 13.1643 29.6464 12.9882C29.2677 12.8121 28.8233 12.8552 28.4855 13.1007L26.2798 14.6222C25.8644 14.9077 25.6835 15.4305 25.8333 15.9117C25.9832 16.3929 26.4289 16.7205 26.933 16.7198Z" fill="#05FFFF"/>
<path d="M21.8648 17.6663L19.6637 19.1889C19.1544 19.5539 19.0311 20.2596 19.3865 20.7757C19.7419 21.2918 20.445 21.4284 20.9678 21.0829L23.1746 19.5603C23.6839 19.1952 23.8072 18.4896 23.4518 17.9735C23.0965 17.4573 22.3933 17.3207 21.8705 17.6663H21.8648Z" fill="#05FFFF"/>
<path d="M34.205 11.9498L34.4994 11.7474L34.7938 11.9498C35.3162 12.2911 36.0155 12.1537 36.3697 11.6399C36.724 11.1262 36.6039 10.4237 36.0991 10.0569L35.1515 9.40365C34.7588 9.13335 34.2401 9.13335 33.8474 9.40365L32.8998 10.0569C32.395 10.4237 32.2749 11.1262 32.6291 11.6399C32.9834 12.1537 33.6827 12.2911 34.205 11.9498Z" fill="#05FFFF"/>
<path d="M41.4163 16.5163C41.9391 16.8618 42.6422 16.7252 42.9976 16.2091C43.353 15.6929 43.2297 14.9873 42.7204 14.6222L40.5135 13.1008C40.1764 12.8367 39.7205 12.7817 39.3303 12.9583C38.9401 13.1348 38.6803 13.5135 38.6561 13.9411C38.632 14.3687 38.8474 14.7743 39.2152 14.9937L41.4163 16.5163Z" fill="#05FFFF"/>
<path d="M48.0354 21.0829C48.3738 21.3161 48.8108 21.351 49.1819 21.1746C49.553 20.9981 49.8017 20.6371 49.8345 20.2276C49.8673 19.818 49.679 19.422 49.3407 19.1889L47.1338 17.6663C46.611 17.3207 45.9079 17.4573 45.5525 17.9735C45.1971 18.4896 45.3204 19.1952 45.8297 19.5603L48.0354 21.0829Z" fill="#05FFFF"/>
<path d="M34.4984 40.25C34.714 40.25 34.9252 40.1895 35.1079 40.0752L44.3079 34.3252C44.6442 34.1151 44.8484 33.7466 44.8484 33.35V23C44.8484 22.6035 44.6442 22.235 44.3079 22.0248L35.1079 16.2748C34.735 16.0418 34.2619 16.0418 33.8889 16.2748L24.6889 22.0248C24.3527 22.235 24.1484 22.6035 24.1484 23V33.35C24.1484 33.7466 24.3527 34.1151 24.6889 34.3252L33.8889 40.0752C34.0717 40.1895 34.2829 40.25 34.4984 40.25ZM42.5484 32.7129L35.6484 37.03V29.3883L42.5484 25.0758V32.7129ZM34.4984 18.6059L41.5284 23L34.4984 27.3942L27.4685 23L34.4984 18.6059ZM33.3484 37.03L26.4484 32.7175V25.0758L33.3484 29.3883V37.03Z" fill="#05FFFF"/>
</g>
<defs>
<clipPath id="clip0">
<rect width="69" height="69" fill="white"/>
</clipPath>
</defs>
</svg>
