<svg width="72" height="72" viewBox="0 0 72 72" fill="none" xmlns="http://www.w3.org/2000/svg">
<path d="M68.7645 29.259L63.1204 28.5548C62.5056 26.2921 61.6063 24.1166 60.444 22.0804L63.9315 17.5995C64.0999 17.3831 64.1834 17.1127 64.1664 16.839C64.1494 16.5653 64.0331 16.3073 63.8392 16.1134L55.8855 8.15962C55.6915 7.96549 55.4333 7.84895 55.1593 7.83196C54.8854 7.81497 54.6147 7.8987 54.3983 8.06738L49.9185 11.5549C47.8818 10.3932 45.7064 9.49354 43.4441 8.87737L42.7399 3.23438C42.7057 2.96273 42.5735 2.71289 42.3683 2.53168C42.1631 2.35047 41.8988 2.25032 41.625 2.25H30.375C30.1008 2.25008 29.8362 2.35026 29.6307 2.53173C29.4252 2.7132 29.293 2.96346 29.259 3.2355L28.5548 8.8785C26.2924 9.49467 24.1171 10.3943 22.0804 11.556L17.6006 8.0685C17.3841 7.89982 17.1135 7.8161 16.8395 7.83309C16.5656 7.85008 16.3074 7.96661 16.1134 8.16075L8.15962 16.1145C7.96579 16.3084 7.84945 16.5665 7.83246 16.8401C7.81547 17.1138 7.89901 17.3842 8.06738 17.6006L11.5549 22.0815C10.3926 24.1178 9.49326 26.2933 8.8785 28.5559L3.23438 29.2601C2.96273 29.2943 2.71289 29.4265 2.53168 29.6317C2.35047 29.8369 2.25032 30.1012 2.25 30.375V41.625C2.25008 41.8992 2.35026 42.1638 2.53173 42.3693C2.7132 42.5748 2.96346 42.707 3.2355 42.741L8.87963 43.4453C9.49438 45.7079 10.3937 47.8834 11.556 49.9196L8.0685 54.4005C7.90014 54.6169 7.8166 54.8873 7.83359 55.161C7.85057 55.4347 7.96692 55.6927 8.16075 55.8866L16.1145 63.8404C16.3085 64.0345 16.5667 64.151 16.8407 64.168C17.1146 64.185 17.3853 64.1013 17.6017 63.9326L22.0804 60.4451C23.3091 61.1396 24.5902 61.7369 25.9121 62.2316C25.9918 62.9814 26.3214 63.6825 26.8479 64.2223C27.3743 64.762 28.0671 65.109 28.8146 65.2073L29.2646 68.7656C29.2987 69.0365 29.4302 69.2857 29.6345 69.4668C29.8388 69.6479 30.102 69.7486 30.375 69.75H41.625C41.8992 69.7499 42.1638 69.6497 42.3693 69.4683C42.5748 69.2868 42.707 69.0365 42.741 68.7645L43.191 65.2061C43.9385 65.1078 44.6313 64.7609 45.1578 64.2212C45.6842 63.6814 46.0138 62.9803 46.0935 62.2305C47.4154 61.7358 48.6965 61.1385 49.9252 60.444L54.4039 63.9315C54.6204 64.1002 54.891 64.1839 55.165 64.1669C55.4389 64.1499 55.6971 64.0334 55.8911 63.8392L63.8449 55.8855C64.0387 55.6916 64.1551 55.4335 64.172 55.1599C64.189 54.8862 64.1055 54.6158 63.9371 54.3994L60.4496 49.9185C61.6119 47.8822 62.5112 45.7067 63.126 43.4441L68.7701 42.7399C69.041 42.7046 69.2897 42.5721 69.47 42.367C69.6503 42.1618 69.7498 41.8981 69.75 41.625V30.375C69.7499 30.1008 69.6497 29.8362 69.4683 29.6307C69.2868 29.4252 69.0365 29.293 68.7645 29.259ZM28.125 58.5C27.8266 58.5 27.5405 58.3815 27.3295 58.1705C27.1185 57.9595 27 57.6734 27 57.375C26.9997 57.225 27.0302 57.0765 27.0896 56.9387C27.149 56.8009 27.2361 56.6768 27.3454 56.574C27.4466 56.47 27.5679 56.3876 27.7019 56.3319C27.8359 56.2762 27.9799 56.2484 28.125 56.25H43.875C44.1734 56.25 44.4595 56.3685 44.6705 56.5795C44.8815 56.7905 45 57.0766 45 57.375C45.0002 57.5249 44.9698 57.6733 44.9106 57.8111C44.8514 57.9488 44.7647 58.073 44.6558 58.176C44.5542 58.2799 44.4327 58.3621 44.2985 58.4178C44.1643 58.4735 44.0203 58.5015 43.875 58.5H28.125ZM43.3823 50.0524C43.1925 50.1448 43.0326 50.2888 42.9208 50.4679C42.809 50.6469 42.7498 50.8538 42.75 51.0649V54H29.25V51.0638C29.2501 50.8525 29.1908 50.6456 29.0788 50.4665C28.9667 50.2875 28.8066 50.1435 28.6166 50.0513C25.1842 48.3813 22.4194 45.5969 20.7736 42.1529C19.1278 38.7088 18.6982 34.8085 19.5551 31.0889C20.412 27.3692 22.5046 24.0499 25.4913 21.673C28.478 19.2961 32.1823 18.0019 35.9994 18.0019C39.8165 18.0019 43.5209 19.2961 46.5076 21.673C49.4943 24.0499 51.5869 27.3692 52.4438 31.0889C53.3006 34.8085 52.8711 38.7088 51.2253 42.1529C49.5795 45.5969 46.8146 48.3813 43.3823 50.0513V50.0524ZM31.3695 67.5L31.0871 65.25H40.9129L40.6305 67.5H31.3695ZM42.75 63H29.25C28.9516 63 28.6655 62.8815 28.4545 62.6705C28.2435 62.4595 28.125 62.1734 28.125 61.875C28.125 61.5766 28.2435 61.2905 28.4545 61.0795C28.6655 60.8685 28.9516 60.75 29.25 60.75H42.75C43.0484 60.75 43.3345 60.8685 43.5455 61.0795C43.7565 61.2905 43.875 61.5766 43.875 61.875C43.875 62.1734 43.7565 62.4595 43.5455 62.6705C43.3345 62.8815 43.0484 63 42.75 63ZM67.5 40.6316L62.0843 41.3066C61.858 41.3347 61.6457 41.4309 61.4753 41.5823C61.3049 41.7338 61.1846 41.9335 61.1303 42.1549C60.5101 44.7166 59.4964 47.1668 58.1254 49.4179C58.0059 49.6129 57.9487 49.8396 57.9613 50.0679C57.974 50.2963 58.056 50.5153 58.1963 50.6959L61.5465 54.9979L54.999 61.5454L50.697 58.1963C50.5163 58.0557 50.2971 57.9736 50.0685 57.961C49.84 57.9483 49.613 58.0057 49.4179 58.1254C48.4048 58.7436 47.3483 59.2877 46.2566 59.7533C46.573 59.4435 46.8239 59.0734 46.9946 58.6649C47.1652 58.2564 47.2521 57.8177 47.25 57.375C47.2471 56.6795 47.0294 56.0018 46.6267 55.4347C46.2239 54.8676 45.6558 54.4388 45 54.207V51.75C48.7634 49.7429 51.7478 46.5353 53.4789 42.6373C55.21 38.7392 55.5884 34.3743 54.554 30.2365C53.5195 26.0987 51.1316 22.4254 47.7698 19.8006C44.4079 17.1757 40.2652 15.75 36 15.75C31.7348 15.75 27.5921 17.1757 24.2302 19.8006C20.8684 22.4254 18.4805 26.0987 17.446 30.2365C16.4116 34.3743 16.79 38.7392 18.5211 42.6373C20.2522 46.5353 23.2366 49.7429 27 51.75V54.2003C26.5301 54.3601 26.1037 54.627 25.7546 54.9799C25.434 55.2905 25.1796 55.6628 25.0069 56.0745C24.8342 56.4862 24.7468 56.9286 24.75 57.375C24.7495 58.2644 25.1019 59.1177 25.7299 59.7476C24.6422 59.2837 23.5895 58.742 22.5799 58.1265C22.3848 58.0068 22.1578 57.9494 21.9292 57.9621C21.7007 57.9747 21.4814 58.0568 21.3008 58.1974L16.9987 61.5465L10.4513 54.999L13.8015 50.697C13.9418 50.5164 14.0237 50.2974 14.0364 50.0691C14.0491 49.8407 13.9918 49.614 13.8724 49.419C12.5013 47.1679 11.4877 44.7178 10.8675 42.156C10.8132 41.9346 10.6928 41.7349 10.5225 41.5835C10.3521 41.432 10.1397 41.3358 9.9135 41.3077L4.5 40.6316V31.3684L9.91575 30.6934C10.142 30.6653 10.3544 30.5691 10.5247 30.4177C10.6951 30.2662 10.8154 30.0665 10.8698 29.8451C11.4899 27.2833 12.5036 24.8332 13.8746 22.5821C13.9941 22.3871 14.0513 22.1604 14.0387 21.9321C14.026 21.7037 13.9441 21.4847 13.8038 21.3041L10.4535 17.001L17.001 10.4535L21.303 13.8026C21.4834 13.9429 21.7021 14.0249 21.9302 14.0377C22.1583 14.0506 22.3849 13.9937 22.5799 13.8746C24.8314 12.5042 27.2814 11.4902 29.8429 10.8686C30.0643 10.8145 30.2641 10.6945 30.4158 10.5243C30.5675 10.3542 30.6639 10.1419 30.6922 9.91575L31.3684 4.5H40.6316L41.3066 9.91575C41.335 10.1419 41.4314 10.3542 41.5831 10.5243C41.7348 10.6945 41.9346 10.8145 42.156 10.8686C44.7175 11.4902 47.1674 12.5042 49.419 13.8746C49.614 13.9937 49.8406 14.0506 50.0687 14.0377C50.2968 14.0249 50.5155 13.9429 50.6959 13.8026L54.9979 10.4535L61.5454 17.001L58.1963 21.303C58.056 21.4836 57.974 21.7026 57.9613 21.9309C57.9487 22.1593 58.0059 22.386 58.1254 22.581C59.4964 24.8321 60.5101 27.2822 61.1303 29.844C61.1846 30.0654 61.3049 30.2651 61.4753 30.4165C61.6457 30.568 61.858 30.6642 62.0843 30.6922L67.5 31.3673V40.6316Z" fill="white"/>
<path d="M34.875 11.25H37.125V13.5H34.875V11.25Z" fill="#05FFFF"/>
<path d="M17.6992 19.2957L19.2902 17.7047L20.8812 19.2957L19.2902 20.8866L17.6992 19.2957Z" fill="#05FFFF"/>
<path d="M11.25 34.875H13.5V37.125H11.25V34.875Z" fill="#05FFFF"/>
<path d="M17.6953 52.702L19.2863 51.111L20.8773 52.702L19.2863 54.293L17.6953 52.702Z" fill="#05FFFF"/>
<path d="M51.1055 52.7043L52.6965 51.1134L54.2875 52.7043L52.6965 54.2953L51.1055 52.7043Z" fill="#05FFFF"/>
<path d="M58.5 34.875H60.75V37.125H58.5V34.875Z" fill="#05FFFF"/>
<path d="M51.1074 19.298L52.6984 17.707L54.2894 19.298L52.6984 20.889L51.1074 19.298Z" fill="#05FFFF"/>
<path d="M49.5003 39.375C49.4974 38.6795 49.2797 38.0018 48.8769 37.4347C48.4742 36.8677 47.906 36.4389 47.2503 36.207V32.625C47.2503 32.383 47.1722 32.1474 47.0277 31.9533C46.8832 31.7591 46.68 31.6167 46.4481 31.5473L35.1981 28.1723C34.9875 28.1092 34.763 28.1092 34.5524 28.1723L23.3024 31.5473C23.0705 31.6167 22.8672 31.759 22.7226 31.9532C22.5781 32.1474 22.5 32.383 22.5 32.625C22.5 32.8671 22.5781 33.1027 22.7226 33.2968C22.8672 33.491 23.0705 33.6334 23.3024 33.7028L28.1253 35.1495V41.625C28.1253 41.9234 28.2438 42.2095 28.4548 42.4205C28.6657 42.6315 28.9519 42.75 29.2503 42.75H40.5003C40.7986 42.75 41.0848 42.6315 41.2958 42.4205C41.5067 42.2095 41.6253 41.9234 41.6253 41.625V35.1495L45.0003 34.137V36.207C44.4184 36.4143 43.9048 36.7775 43.5154 37.2569C43.126 37.7363 42.8759 38.3136 42.7925 38.9255C42.709 39.5375 42.7953 40.1606 43.042 40.7269C43.2887 41.2931 43.6863 41.7806 44.1913 42.1361C44.6963 42.4917 45.2894 42.7016 45.9056 42.7429C46.5219 42.7842 47.1376 42.6553 47.6856 42.3703C48.2335 42.0853 48.6926 41.6552 49.0126 41.1269C49.3327 40.5987 49.5014 39.9926 49.5003 39.375ZM39.3753 40.5H30.3753V35.8245L34.5524 37.0778C34.763 37.1409 34.9875 37.1409 35.1981 37.0778L39.3753 35.8245V40.5ZM34.8753 34.8255L27.5403 32.625L34.8753 30.4245L42.2103 32.625L34.8753 34.8255ZM46.1253 40.5C45.9028 40.5 45.6853 40.434 45.5003 40.3104C45.3152 40.1868 45.1711 40.0111 45.0859 39.8055C45.0008 39.6 44.9785 39.3738 45.0219 39.1555C45.0653 38.9373 45.1724 38.7369 45.3298 38.5795C45.4871 38.4222 45.6876 38.315 45.9058 38.2716C46.124 38.2282 46.3502 38.2505 46.5558 38.3357C46.7614 38.4208 46.9371 38.565 47.0607 38.75C47.1843 38.935 47.2503 39.1525 47.2503 39.375C47.2503 39.6734 47.1317 39.9595 46.9208 40.1705C46.7098 40.3815 46.4236 40.5 46.1253 40.5Z" fill="#05FFFF"/>
</svg>
