<svg width="139" height="139" viewBox="0 0 139 139" fill="none" xmlns="http://www.w3.org/2000/svg">
<g clip-path="url(#clip0)">
<path d="M120.912 93.4195C118.615 90.0209 114.769 87.9986 110.667 88.0333H102.92L129.356 47.6005C129.823 46.9076 129.882 46.0166 129.508 45.2689C129.134 44.5211 128.387 44.0326 127.552 43.9906C126.717 43.9486 125.924 44.3596 125.478 45.066L86.7801 104.25H52.22L13.5224 45.066C13.0756 44.3596 12.2829 43.9486 11.4481 43.9906C10.6132 44.0326 9.86576 44.5211 9.49213 45.2689C9.11851 46.0166 9.17667 46.9076 9.64433 47.6005L36.0798 88.0333H28.3329C24.2279 87.9991 20.3792 90.0253 18.084 93.4288L1.15838 119.028C0.398979 120.133 -0.00513918 121.443 4.93425e-05 122.783V132.05C4.93425e-05 135.888 3.11167 139 6.95005 139H132.05C135.888 139 139 135.888 139 132.05V122.783C139.003 121.45 138.599 120.148 137.842 119.051L120.912 93.4195ZM36.2651 92.6666H39.11L49.0277 107.834C49.4554 108.488 50.1847 108.883 50.9667 108.883H88.0334C88.8154 108.883 89.5447 108.488 89.9724 107.834L99.8901 92.6666H105.049L107.25 97.7053L106.541 98.0598C103.46 99.6253 101.984 103.206 103.066 106.488L105.543 113.915C106.347 116.368 108.451 118.168 110.998 118.583L116.802 119.556L119.237 125.1H22.0756L36.2651 92.6666ZM5.01332 121.604L21.9435 95.991C23.3818 93.8823 25.7806 92.6342 28.3329 92.6666H31.2079L17.0183 125.1H7.22805C5.87333 125.172 4.71425 124.138 4.63338 122.783C4.63525 122.36 4.76797 121.948 5.01332 121.604ZM134.367 132.05C134.367 133.329 133.33 134.367 132.05 134.367H6.95005C5.67059 134.367 4.63338 133.329 4.63338 132.05V129.251C5.46249 129.566 6.3413 129.729 7.22805 129.733H131.772C132.659 129.729 133.538 129.566 134.367 129.251V132.05ZM131.772 125.1H124.298L120.527 116.503C120.159 115.659 119.326 115.113 118.405 115.113L111.761 114.008C110.916 113.866 110.218 113.27 109.947 112.458L107.466 105.014C107.093 103.918 107.588 102.715 108.624 102.197L110.639 101.19C111.352 101.083 111.975 100.651 112.324 100.02C112.674 99.3897 112.709 98.6325 112.421 97.9718L110.104 92.6666H110.665C113.214 92.6337 115.61 93.878 117.05 95.9817L134.003 121.625C134.24 121.965 134.367 122.369 134.367 122.783C134.286 124.138 133.127 125.172 131.772 125.1Z" fill="white"/>
<path d="M67.1841 41.7001C67.1841 42.9795 68.2213 44.0167 69.5008 44.0167C70.7802 44.0167 71.8174 42.9795 71.8174 41.7001V36.1401L79.8655 31.8149C80.9927 31.2084 81.4149 29.803 80.8084 28.6758C80.202 27.5486 78.7965 27.1264 77.6693 27.7329L69.5008 32.1207L61.3322 27.719C60.205 27.1125 58.7996 27.5347 58.1931 28.6619C57.5867 29.7891 58.0088 31.1945 59.136 31.801L67.1841 36.1401V41.7001Z" fill="#05FFFF"/>
<path d="M38.285 53.0053L68.4017 69.222C69.0872 69.5911 69.9123 69.5911 70.5979 69.222L100.715 53.0053C101.465 52.6015 101.933 51.8186 101.933 50.9667V18.5333C101.933 17.7185 101.504 16.9637 100.805 16.5456C100.775 16.5271 100.74 16.5202 100.708 16.5039L70.5909 0.287282C69.9053 -0.0817633 69.0803 -0.0817633 68.3947 0.287282L38.278 16.5039C38.2456 16.5202 38.2109 16.5271 38.1807 16.5456C37.4866 16.9671 37.0638 17.7213 37.0664 18.5333V50.9667C37.0669 51.8186 37.5348 52.6015 38.285 53.0053ZM41.6998 22.4091L47.5517 25.5552C48.6789 26.1616 50.0843 25.7395 50.6907 24.6123C51.2972 23.4851 50.8751 22.0797 49.7479 21.4732L44.2736 18.5333L69.4998 4.94841L94.7259 18.5333L89.2517 21.4755C88.1245 22.082 87.7023 23.4874 88.3088 24.6146C88.9152 25.7418 90.3207 26.1639 91.4479 25.5575L97.2998 22.4091V49.5767L71.8164 63.3052V55.6C71.8164 54.3206 70.7792 53.2833 69.4998 53.2833C68.2203 53.2833 67.1831 54.3206 67.1831 55.6V63.3052L41.6998 49.5767V22.4091Z" fill="#05FFFF"/>
</g>
<defs>
<clipPath id="clip0">
<rect width="139" height="139" fill="white"/>
</clipPath>
</defs>
</svg>
