<svg width="157" height="157" viewBox="0 0 157 157" fill="none" xmlns="http://www.w3.org/2000/svg">
<g clip-path="url(#clip0)">
<path d="M105.047 44.3439C105.047 43.0738 104.017 42.0441 102.747 42.0441H54.2549C52.9848 42.0441 51.9551 43.0738 51.9551 44.3439C51.9551 45.614 52.9848 46.6437 54.2549 46.6437H102.747C104.018 46.6437 105.047 45.614 105.047 44.3439Z" fill="#05FFFF"/>
<path d="M78.4898 83.6506H78.4972C81.1147 83.6506 83.5776 82.6289 85.4331 80.7737C86.3313 79.8756 86.3313 78.4194 85.4331 77.5215C84.535 76.6234 83.0787 76.6234 82.1809 77.5215C81.1941 78.5083 79.8863 79.0513 78.4975 79.0513C78.4963 79.0513 78.4947 79.0513 78.4935 79.0513C77.1075 79.0504 75.804 78.508 74.8227 77.524C73.9261 76.6243 72.4699 76.6224 71.5705 77.5191C70.6711 78.4157 70.669 79.8719 71.5656 80.7713C73.4146 82.6265 75.8739 83.6491 78.4898 83.6506Z" fill="#05FFFF"/>
<path d="M142.341 150.993L138.048 127.465C135.664 114.364 130.775 106.064 122.659 101.345C115.543 97.2066 106.539 96.0883 96.1375 94.9335V91.8505C103.685 87.051 110.225 79.7585 114.013 71.669H114.29C118.102 71.669 121.277 68.9009 121.913 65.2715H124.624C128.591 65.2715 131.818 62.0447 131.818 58.078V44.4224C131.818 40.4557 128.591 37.2289 124.624 37.2289H121.911C121.334 33.9356 118.666 31.3525 115.328 30.9032C111.336 17.178 101.154 7.36735 87.6276 4.19392V3.5693C87.628 1.60097 86.023 0 84.0504 0H72.942C70.9743 0 69.373 1.60097 69.373 3.56899V4.19331C55.8422 7.36581 45.6568 17.1768 41.6644 30.9029C38.3254 31.3522 35.6579 33.9353 35.0808 37.2289H32.3676C28.4012 37.2289 25.1745 40.4557 25.1745 44.4224V58.0777C25.1745 62.0444 28.4012 65.2712 32.3676 65.2712H35.0793C35.7146 68.9006 38.8899 71.6687 42.7023 71.6687H42.9863C46.7684 79.7572 53.3093 87.0504 60.8634 91.8514V94.9332C50.46 96.088 41.4552 97.206 34.3384 101.344C26.2238 106.062 21.3322 114.362 18.9444 127.464L14.6591 150.996C14.4402 152.204 14.2841 153.973 15.453 155.373C16.6575 156.815 18.5992 157 20.1557 157H73.3244C74.5945 157 75.6242 155.97 75.6242 154.7C75.6242 153.43 74.5945 152.4 73.3244 152.4H47.8619V138.924C47.8619 137.654 46.8322 136.624 45.5621 136.624C44.292 136.624 43.2623 137.654 43.2623 138.924V152.4H19.849C19.3728 152.368 19.1444 152.041 19.1845 151.818L23.4698 128.289C27.9226 103.856 40.3529 101.846 60.8637 99.5616V100.07C60.8637 109.793 68.7735 117.703 78.4962 117.703C88.2234 117.703 96.1372 109.793 96.1372 100.07V99.5619C116.648 101.847 129.077 103.857 133.523 128.289L137.816 151.817C137.856 152.041 137.965 152.401 137.463 152.401C137.463 152.401 125.753 152.401 113.738 152.401V138.924C113.738 137.654 112.709 136.625 111.439 136.625C110.168 136.625 109.139 137.654 109.139 138.924V152.4C96.4157 152.4 84.1096 152.4 84.1089 152.4C82.8413 152.4 81.8119 153.427 81.8091 154.695C81.8064 155.965 82.8339 156.997 84.104 157H136.845C138.4 157 140.34 156.815 141.546 155.371C142.851 153.808 142.468 151.691 142.341 150.993ZM122.031 41.8282H124.624C126.055 41.8282 127.218 42.9919 127.218 44.4221V58.0777C127.218 59.5079 126.055 60.6716 124.624 60.6716H122.031V41.8282ZM34.9615 60.6716H32.3679C30.9378 60.6716 29.7744 59.5079 29.7744 58.0777V44.4221C29.7744 42.9919 30.9378 41.8282 32.3679 41.8282H34.9615V60.6716ZM87.6279 8.93489C98.5312 11.8606 106.824 19.8068 110.487 30.8315H87.6279V8.93489ZM73.9729 4.59961H83.0283V30.8312H73.9729V4.59961ZM69.3733 8.93428V30.8315H46.5053C50.1687 19.8056 58.4652 11.859 69.3733 8.93428ZM48.1382 71.6687H73.0202C74.2903 71.6687 75.32 70.639 75.32 69.3689C75.32 68.0987 74.2903 67.0691 73.0202 67.0691H42.7026C40.9704 67.0691 39.5611 65.6637 39.5611 63.9361V38.5634C39.5611 36.8361 40.9704 35.4308 42.7026 35.4308H85.3281H114.29C116.022 35.4308 117.431 36.8361 117.431 38.5634V63.9361C117.431 65.6637 116.022 67.0691 114.29 67.0691H83.633C82.3629 67.0691 81.3332 68.0987 81.3332 69.3689C81.3332 70.639 82.3629 71.6687 83.633 71.6687H108.86C104.104 80.4459 95.6129 88.1435 86.8334 91.4022C80.7549 93.6505 76.2378 93.6508 70.1697 91.4031C61.3792 88.1402 52.8871 80.4426 48.1382 71.6687ZM91.5376 100.07C91.5376 107.256 85.6872 113.103 78.4962 113.103C71.3098 113.103 65.4634 107.256 65.4634 100.07V94.3999C66.4894 94.8872 67.5261 95.3281 68.5708 95.716C72.0951 97.0211 75.2949 97.6739 78.4968 97.6739C81.6987 97.6739 84.9022 97.0211 88.432 95.7154C89.4761 95.3278 90.5122 94.8869 91.5379 94.3996V100.07H91.5376Z" fill="white"/>
</g>
<defs>
<clipPath id="clip0">
<rect width="157" height="157" fill="white"/>
</clipPath>
</defs>
</svg>
