<svg width="133" height="133" viewBox="0 0 133 133" fill="none" xmlns="http://www.w3.org/2000/svg">
<path d="M124.133 17.7333H113.05V6.65C113.05 2.97731 110.073 0 106.4 0H70.9333C67.2606 0 64.2833 2.97731 64.2833 6.65V17.7333H53.0626C51.8775 7.68921 43.3638 0.121004 33.25 0.121004C23.1362 0.121004 14.6225 7.68921 13.4374 17.7333H8.86667C3.96974 17.7333 0 21.7031 0 26.6V88.6667C0 93.5636 3.96974 97.5333 8.86667 97.5333H17.7333V130.783C17.7333 132.008 18.7258 133 19.95 133H113.05C114.274 133 115.267 132.008 115.267 130.783V97.5333H124.133C129.03 97.5333 133 93.5636 133 88.6667V26.6C133 21.7031 129.03 17.7333 124.133 17.7333ZM68.7167 6.65C68.7167 5.42577 69.7091 4.43333 70.9333 4.43333H106.4C107.624 4.43333 108.617 5.42577 108.617 6.65V24.3833C108.617 25.6076 107.624 26.6 106.4 26.6H70.9333C69.7091 26.6 68.7167 25.6076 68.7167 24.3833V6.65ZM104.183 53.2C104.183 54.4242 103.191 55.4167 101.967 55.4167C100.742 55.4167 99.75 54.4242 99.75 53.2C99.75 51.9758 100.742 50.9833 101.967 50.9833C103.191 50.9833 104.183 51.9758 104.183 53.2ZM33.25 4.47988C41.8156 4.48966 48.7569 11.431 48.7667 19.9965C48.7667 24.5252 43.593 33.332 34.928 43.5531C34.5023 44.0329 33.8915 44.3075 33.25 44.3075C32.6085 44.3075 31.9977 44.0329 31.572 43.5531C22.907 33.332 17.7333 24.5252 17.7333 19.9965C17.7431 11.431 24.6844 4.48966 33.25 4.47988ZM4.43333 40.5827L7.46573 43.4245C8.35837 44.2644 8.86518 45.4352 8.86667 46.6608V68.6058C8.86669 69.8311 8.35958 71.0018 7.46573 71.84L4.43333 74.6817V40.5827ZM48.7667 128.567H22.1667V97.5333H48.7667V128.567ZM48.7667 93.1H22.1667V64.2833C22.1667 63.0591 23.1591 62.0667 24.3833 62.0667H46.55C47.7742 62.0667 48.7667 63.0591 48.7667 64.2833V93.1ZM79.8 128.567H53.2V97.5333H79.8V128.567ZM79.8 73.15V93.1H53.2V68.7167V44.3333C53.2 43.1091 54.1924 42.1167 55.4167 42.1167H77.5833C78.8076 42.1167 79.8 43.1091 79.8 44.3333V73.15ZM110.833 128.567H84.2333V97.5333H110.833V128.567ZM110.833 93.1H84.2333V73.15C84.2333 71.9258 85.2258 70.9333 86.45 70.9333H108.617C109.841 70.9333 110.833 71.9258 110.833 73.15V93.1ZM119.7 88.6667C119.7 91.1151 117.715 93.1 115.267 93.1V73.15C115.267 69.4773 112.289 66.5 108.617 66.5H86.45C85.6931 66.5073 84.9432 66.6453 84.2333 66.9079V44.3333C84.2333 40.6606 81.256 37.6833 77.5833 37.6833H55.4167C51.744 37.6833 48.7667 40.6606 48.7667 44.3333V58.0412C48.0568 57.7787 47.3069 57.6407 46.55 57.6333H24.3833C20.7106 57.6333 17.7333 60.6106 17.7333 64.2833V93.1H8.86667C6.4182 93.1 4.43333 91.1151 4.43333 88.6667V80.7598L10.4959 75.0763C12.2821 73.3979 13.2966 71.0569 13.3 68.6058V46.6608C13.2966 44.2098 12.2821 41.8688 10.4959 40.1904L4.43333 34.5069V26.6C4.43333 24.1515 6.4182 22.1667 8.86667 22.1667H13.5217C14.8273 29.3886 22.0315 39.1618 28.1849 46.4192C29.4434 47.9081 31.2939 48.7669 33.2434 48.7669C35.1928 48.7669 37.0433 47.9081 38.3018 46.4192C44.4619 39.1618 51.6661 29.3886 52.9783 22.1667H64.2833V24.3833C64.2833 28.056 67.2606 31.0333 70.9333 31.0333H99.75V46.9579C96.6964 48.0375 94.8647 51.1599 95.4124 54.3521C95.9601 57.5442 98.7279 59.8775 101.967 59.8775C105.205 59.8775 107.973 57.5442 108.521 54.3521C109.069 51.1599 107.237 48.0375 104.183 46.9579V31.0333H106.4C110.073 31.0333 113.05 28.056 113.05 24.3833V22.1667H115.267C117.715 22.1667 119.7 24.1515 119.7 26.6V88.6667ZM128.567 88.6667C128.567 91.1151 126.582 93.1 124.133 93.1H122.901C123.699 91.7581 124.124 90.2278 124.133 88.6667V26.6C124.124 25.0389 123.699 23.5085 122.901 22.1667H124.133C126.582 22.1667 128.567 24.1515 128.567 26.6V88.6667Z" fill="white"/>
<path d="M31.0328 66.5H26.5995C25.3752 66.5 24.3828 67.4924 24.3828 68.7167C24.3828 69.9409 25.3752 70.9333 26.5995 70.9333H31.0328C32.257 70.9333 33.2495 69.9409 33.2495 68.7167C33.2495 67.4924 32.257 66.5 31.0328 66.5Z" fill="white"/>
<path d="M44.3336 66.5H39.9003C38.676 66.5 37.6836 67.4924 37.6836 68.7167C37.6836 69.9409 38.676 70.9333 39.9003 70.9333H44.3336C45.5578 70.9333 46.5503 69.9409 46.5503 68.7167C46.5503 67.4924 45.5578 66.5 44.3336 66.5Z" fill="white"/>
<path d="M31.0328 75.3667H26.5995C25.3752 75.3667 24.3828 76.3591 24.3828 77.5834C24.3828 78.8076 25.3752 79.8 26.5995 79.8H31.0328C32.257 79.8 33.2495 78.8076 33.2495 77.5834C33.2495 76.3591 32.257 75.3667 31.0328 75.3667Z" fill="white"/>
<path d="M44.3336 75.3667H39.9003C38.676 75.3667 37.6836 76.3591 37.6836 77.5834C37.6836 78.8076 38.676 79.8 39.9003 79.8H44.3336C45.5578 79.8 46.5503 78.8076 46.5503 77.5834C46.5503 76.3591 45.5578 75.3667 44.3336 75.3667Z" fill="white"/>
<path d="M62.066 46.5499H57.6327C56.4085 46.5499 55.416 47.5424 55.416 48.7666C55.416 49.9908 56.4085 50.9833 57.6327 50.9833H62.066C63.2902 50.9833 64.2827 49.9908 64.2827 48.7666C64.2827 47.5424 63.2902 46.5499 62.066 46.5499Z" fill="#05FFFF"/>
<path d="M75.3668 46.5499H70.9335C69.7092 46.5499 68.7168 47.5424 68.7168 48.7666C68.7168 49.9908 69.7092 50.9833 70.9335 50.9833H75.3668C76.591 50.9833 77.5835 49.9908 77.5835 48.7666C77.5835 47.5424 76.591 46.5499 75.3668 46.5499Z" fill="#05FFFF"/>
<path d="M62.066 55.4166H57.6327C56.4085 55.4166 55.416 56.409 55.416 57.6332C55.416 58.8575 56.4085 59.8499 57.6327 59.8499H62.066C63.2902 59.8499 64.2827 58.8575 64.2827 57.6332C64.2827 56.409 63.2902 55.4166 62.066 55.4166Z" fill="#05FFFF"/>
<path d="M75.3668 55.4166H70.9335C69.7092 55.4166 68.7168 56.409 68.7168 57.6332C68.7168 58.8575 69.7092 59.8499 70.9335 59.8499H75.3668C76.591 59.8499 77.5835 58.8575 77.5835 57.6332C77.5835 56.409 76.591 55.4166 75.3668 55.4166Z" fill="#05FFFF"/>
<path d="M62.066 64.2833H57.6327C56.4085 64.2833 55.416 65.2757 55.416 66.4999C55.416 67.7242 56.4085 68.7166 57.6327 68.7166H62.066C63.2902 68.7166 64.2827 67.7242 64.2827 66.4999C64.2827 65.2757 63.2902 64.2833 62.066 64.2833Z" fill="#05FFFF"/>
<path d="M75.3668 64.2833H70.9335C69.7092 64.2833 68.7168 65.2757 68.7168 66.4999C68.7168 67.7242 69.7092 68.7166 70.9335 68.7166H75.3668C76.591 68.7166 77.5835 67.7242 77.5835 66.4999C77.5835 65.2757 76.591 64.2833 75.3668 64.2833Z" fill="#05FFFF"/>
<path d="M62.066 73.15H57.6327C56.4085 73.15 55.416 74.1424 55.416 75.3666C55.416 76.5909 56.4085 77.5833 57.6327 77.5833H62.066C63.2902 77.5833 64.2827 76.5909 64.2827 75.3666C64.2827 74.1424 63.2902 73.15 62.066 73.15Z" fill="#05FFFF"/>
<path d="M75.3668 73.15H70.9335C69.7092 73.15 68.7168 74.1424 68.7168 75.3666C68.7168 76.5909 69.7092 77.5833 70.9335 77.5833H75.3668C76.591 77.5833 77.5835 76.5909 77.5835 75.3666C77.5835 74.1424 76.591 73.15 75.3668 73.15Z" fill="#05FFFF"/>
<path d="M57.6327 106.4H62.066C63.2902 106.4 64.2827 105.408 64.2827 104.183C64.2827 102.959 63.2902 101.967 62.066 101.967H57.6327C56.4085 101.967 55.416 102.959 55.416 104.183C55.416 105.408 56.4085 106.4 57.6327 106.4Z" fill="#05FFFF"/>
<path d="M70.9335 106.4H75.3668C76.591 106.4 77.5835 105.408 77.5835 104.183C77.5835 102.959 76.591 101.967 75.3668 101.967H70.9335C69.7092 101.967 68.7168 102.959 68.7168 104.183C68.7168 105.408 69.7092 106.4 70.9335 106.4Z" fill="#05FFFF"/>
<path d="M62.066 82.0167H57.6327C56.4085 82.0167 55.416 83.0091 55.416 84.2333C55.416 85.4575 56.4085 86.45 57.6327 86.45H62.066C63.2902 86.45 64.2827 85.4575 64.2827 84.2333C64.2827 83.0091 63.2902 82.0167 62.066 82.0167Z" fill="#05FFFF"/>
<path d="M75.3668 82.0167H70.9335C69.7092 82.0167 68.7168 83.0091 68.7168 84.2333C68.7168 85.4575 69.7092 86.45 70.9335 86.45H75.3668C76.591 86.45 77.5835 85.4575 77.5835 84.2333C77.5835 83.0091 76.591 82.0167 75.3668 82.0167Z" fill="#05FFFF"/>
<path d="M31.0328 84.2333H26.5995C25.3752 84.2333 24.3828 85.2258 24.3828 86.45C24.3828 87.6742 25.3752 88.6667 26.5995 88.6667H31.0328C32.257 88.6667 33.2495 87.6742 33.2495 86.45C33.2495 85.2258 32.257 84.2333 31.0328 84.2333Z" fill="white"/>
<path d="M44.3336 84.2333H39.9003C38.676 84.2333 37.6836 85.2258 37.6836 86.45C37.6836 87.6742 38.676 88.6667 39.9003 88.6667H44.3336C45.5578 88.6667 46.5503 87.6742 46.5503 86.45C46.5503 85.2258 45.5578 84.2333 44.3336 84.2333Z" fill="white"/>
<path d="M26.5995 106.4H31.0328C32.257 106.4 33.2495 105.408 33.2495 104.183C33.2495 102.959 32.257 101.967 31.0328 101.967H26.5995C25.3752 101.967 24.3828 102.959 24.3828 104.183C24.3828 105.408 25.3752 106.4 26.5995 106.4Z" fill="white"/>
<path d="M26.5995 115.267H31.0328C32.257 115.267 33.2495 114.274 33.2495 113.05C33.2495 111.826 32.257 110.833 31.0328 110.833H26.5995C25.3752 110.833 24.3828 111.826 24.3828 113.05C24.3828 114.274 25.3752 115.267 26.5995 115.267Z" fill="white"/>
<path d="M39.9003 106.4H44.3336C45.5578 106.4 46.5503 105.408 46.5503 104.183C46.5503 102.959 45.5578 101.967 44.3336 101.967H39.9003C38.676 101.967 37.6836 102.959 37.6836 104.183C37.6836 105.408 38.676 106.4 39.9003 106.4Z" fill="white"/>
<path d="M106.4 75.3667H101.967C100.742 75.3667 99.75 76.3591 99.75 77.5834C99.75 78.8076 100.742 79.8 101.967 79.8H106.4C107.624 79.8 108.617 78.8076 108.617 77.5834C108.617 76.3591 107.624 75.3667 106.4 75.3667Z" fill="#05FFFF"/>
<path d="M93.0992 75.3667H88.6659C87.4417 75.3667 86.4492 76.3591 86.4492 77.5834C86.4492 78.8076 87.4417 79.8 88.6659 79.8H93.0992C94.3235 79.8 95.3159 78.8076 95.3159 77.5834C95.3159 76.3591 94.3235 75.3667 93.0992 75.3667Z" fill="#05FFFF"/>
<path d="M106.4 84.2333H101.967C100.742 84.2333 99.75 85.2258 99.75 86.45C99.75 87.6742 100.742 88.6667 101.967 88.6667H106.4C107.624 88.6667 108.617 87.6742 108.617 86.45C108.617 85.2258 107.624 84.2333 106.4 84.2333Z" fill="#05FFFF"/>
<path d="M93.0992 84.2333H88.6659C87.4417 84.2333 86.4492 85.2258 86.4492 86.45C86.4492 87.6742 87.4417 88.6667 88.6659 88.6667H93.0992C94.3235 88.6667 95.3159 87.6742 95.3159 86.45C95.3159 85.2258 94.3235 84.2333 93.0992 84.2333Z" fill="#05FFFF"/>
<path d="M101.967 106.4H106.4C107.624 106.4 108.617 105.408 108.617 104.183C108.617 102.959 107.624 101.967 106.4 101.967H101.967C100.742 101.967 99.75 102.959 99.75 104.183C99.75 105.408 100.742 106.4 101.967 106.4Z" fill="#05FFFF"/>
<path d="M101.967 115.267H106.4C107.624 115.267 108.617 114.274 108.617 113.05C108.617 111.826 107.624 110.833 106.4 110.833H101.967C100.742 110.833 99.75 111.826 99.75 113.05C99.75 114.274 100.742 115.267 101.967 115.267Z" fill="#05FFFF"/>
<path d="M88.6659 106.4H93.0992C94.3235 106.4 95.3159 105.408 95.3159 104.183C95.3159 102.959 94.3235 101.967 93.0992 101.967H88.6659C87.4417 101.967 86.4492 102.959 86.4492 104.183C86.4492 105.408 87.4417 106.4 88.6659 106.4Z" fill="#05FFFF"/>
<path d="M42.1161 19.9967C42.1161 15.0997 38.1464 11.13 33.2495 11.13C28.3526 11.13 24.3828 15.0997 24.3828 19.9967C24.3828 24.8936 28.3526 28.8633 33.2495 28.8633C38.1464 28.8633 42.1161 24.8936 42.1161 19.9967ZM28.8161 19.9967C28.8161 17.5482 30.801 15.5633 33.2495 15.5633C35.6979 15.5633 37.6828 17.5482 37.6828 19.9967C37.6828 22.4451 35.6979 24.43 33.2495 24.43C30.801 24.43 28.8161 22.4451 28.8161 19.9967Z" fill="white"/>
<path d="M75.3671 13.3H77.5837C78.808 13.3 79.8004 12.3075 79.8004 11.0833C79.8004 9.85907 78.808 8.86664 77.5837 8.86664H75.3671C74.1428 8.86664 73.1504 9.85907 73.1504 11.0833C73.1504 12.3075 74.1428 13.3 75.3671 13.3Z" fill="#05FFFF"/>
<path d="M86.4491 13.3H101.966C103.19 13.3 104.182 12.3075 104.182 11.0833C104.182 9.85907 103.19 8.86664 101.966 8.86664H86.4491C85.2249 8.86664 84.2324 9.85907 84.2324 11.0833C84.2324 12.3075 85.2249 13.3 86.4491 13.3Z" fill="#05FFFF"/>
<path d="M75.3671 22.1667H77.5837C78.808 22.1667 79.8004 21.1742 79.8004 19.95C79.8004 18.7258 78.808 17.7333 77.5837 17.7333H75.3671C74.1428 17.7333 73.1504 18.7258 73.1504 19.95C73.1504 21.1742 74.1428 22.1667 75.3671 22.1667Z" fill="#05FFFF"/>
<path d="M86.4491 22.1667H101.966C103.19 22.1667 104.182 21.1742 104.182 19.95C104.182 18.7258 103.19 17.7333 101.966 17.7333H86.4491C85.2249 17.7333 84.2324 18.7258 84.2324 19.95C84.2324 21.1742 85.2249 22.1667 86.4491 22.1667Z" fill="#05FFFF"/>
</svg>
