<svg width="138" height="138" viewBox="0 0 138 138" fill="none" xmlns="http://www.w3.org/2000/svg">
<path d="M122.906 12.9375H109.969V10.7812C109.969 9.06563 109.287 7.42028 108.074 6.20715C106.861 4.99403 105.216 4.3125 103.5 4.3125C101.784 4.3125 100.139 4.99403 98.9259 6.20715C97.7128 7.42028 97.0312 9.06563 97.0312 10.7812V12.9375H75.4688V10.7812C75.4688 9.06563 74.7872 7.42028 73.5741 6.20715C72.361 4.99403 70.7156 4.3125 69 4.3125C67.2844 4.3125 65.639 4.99403 64.4259 6.20715C63.2128 7.42028 62.5312 9.06563 62.5312 10.7812V12.9375H40.9688V10.7812C40.9688 9.06563 40.2872 7.42028 39.0741 6.20715C37.861 4.99403 36.2156 4.3125 34.5 4.3125C32.7844 4.3125 31.139 4.99403 29.9259 6.20715C28.7128 7.42028 28.0312 9.06563 28.0312 10.7812V12.9375H15.0938C12.2354 12.9407 9.49498 14.0776 7.4738 16.0988C5.45262 18.12 4.31571 20.8604 4.3125 23.7188V122.906C4.31571 125.765 5.45262 128.505 7.4738 130.526C9.49498 132.547 12.2354 133.684 15.0938 133.688H122.906C125.765 133.684 128.505 132.547 130.526 130.526C132.547 128.505 133.684 125.765 133.688 122.906V23.7188C133.684 20.8604 132.547 18.12 130.526 16.0988C128.505 14.0776 125.765 12.9407 122.906 12.9375ZM101.344 10.7812C101.344 10.2094 101.571 9.66093 101.975 9.25655C102.38 8.85218 102.928 8.625 103.5 8.625C104.072 8.625 104.62 8.85218 105.025 9.25655C105.429 9.66093 105.656 10.2094 105.656 10.7812V23.7188C105.656 24.2906 105.429 24.8391 105.025 25.2434C104.62 25.6478 104.072 25.875 103.5 25.875C102.928 25.875 102.38 25.6478 101.975 25.2434C101.571 24.8391 101.344 24.2906 101.344 23.7188V10.7812ZM66.8438 10.7812C66.8438 10.2094 67.0709 9.66093 67.4753 9.25655C67.8797 8.85218 68.4281 8.625 69 8.625C69.5719 8.625 70.1203 8.85218 70.5247 9.25655C70.9291 9.66093 71.1562 10.2094 71.1562 10.7812V23.7188C71.1562 24.2906 70.9291 24.8391 70.5247 25.2434C70.1203 25.6478 69.5719 25.875 69 25.875C68.4281 25.875 67.8797 25.6478 67.4753 25.2434C67.0709 24.8391 66.8438 24.2906 66.8438 23.7188V10.7812ZM32.3438 10.7812C32.3438 10.2094 32.5709 9.66093 32.9753 9.25655C33.3797 8.85218 33.9281 8.625 34.5 8.625C35.0719 8.625 35.6203 8.85218 36.0247 9.25655C36.4291 9.66093 36.6562 10.2094 36.6562 10.7812V23.7188C36.6562 24.2906 36.4291 24.8391 36.0247 25.2434C35.6203 25.6478 35.0719 25.875 34.5 25.875C33.9281 25.875 33.3797 25.6478 32.9753 25.2434C32.5709 24.8391 32.3438 24.2906 32.3438 23.7188V10.7812ZM15.0938 17.25H28.0312V23.7188C28.0312 25.4344 28.7128 27.0797 29.9259 28.2928C31.139 29.506 32.7844 30.1875 34.5 30.1875C36.2156 30.1875 37.861 29.506 39.0741 28.2928C40.2872 27.0797 40.9688 25.4344 40.9688 23.7188V17.25H62.5312V23.7188C62.5312 25.4344 63.2128 27.0797 64.4259 28.2928C65.639 29.506 67.2844 30.1875 69 30.1875C70.7156 30.1875 72.361 29.506 73.5741 28.2928C74.7872 27.0797 75.4688 25.4344 75.4688 23.7188V17.25H97.0312V23.7188C97.0312 25.4344 97.7128 27.0797 98.9259 28.2928C100.139 29.506 101.784 30.1875 103.5 30.1875C105.216 30.1875 106.861 29.506 108.074 28.2928C109.287 27.0797 109.969 25.4344 109.969 23.7188V17.25H122.906C124.621 17.252 126.265 17.9342 127.478 19.1469C128.691 20.3596 129.373 22.0037 129.375 23.7188V38.8125H8.625V23.7188C8.627 22.0037 9.30917 20.3596 10.5219 19.1469C11.7346 17.9342 13.3787 17.252 15.0938 17.25ZM122.906 129.375H15.0938C13.3787 129.373 11.7346 128.691 10.5219 127.478C9.30917 126.265 8.627 124.621 8.625 122.906V43.125H129.375V122.906C129.373 124.621 128.691 126.265 127.478 127.478C126.265 128.691 124.621 129.373 122.906 129.375Z" fill="white"/>
<path d="M118.594 58.2188H109.969C109.397 58.2188 108.848 58.4459 108.444 58.8503C108.04 59.2547 107.812 59.8031 107.812 60.375V69C107.812 69.5719 108.04 70.1203 108.444 70.5247C108.848 70.9291 109.397 71.1562 109.969 71.1562H118.594C119.166 71.1562 119.714 70.9291 120.118 70.5247C120.523 70.1203 120.75 69.5719 120.75 69V60.375C120.75 59.8031 120.523 59.2547 120.118 58.8503C119.714 58.4459 119.166 58.2188 118.594 58.2188ZM116.438 66.8438H112.125V62.5312H116.438V66.8438Z" fill="white"/>
<path d="M75.4688 101.344H66.8438C66.2719 101.344 65.7234 101.571 65.319 101.975C64.9147 102.38 64.6875 102.928 64.6875 103.5V112.125C64.6875 112.697 64.9147 113.245 65.319 113.65C65.7234 114.054 66.2719 114.281 66.8438 114.281H75.4688C76.0406 114.281 76.5891 114.054 76.9935 113.65C77.3978 113.245 77.625 112.697 77.625 112.125V103.5C77.625 102.928 77.3978 102.38 76.9935 101.975C76.5891 101.571 76.0406 101.344 75.4688 101.344ZM73.3125 109.969H69V105.656H73.3125V109.969Z" fill="#05FFFF"/>
<path d="M53.9062 58.2188H45.2812C44.7094 58.2188 44.1609 58.4459 43.7565 58.8503C43.3522 59.2547 43.125 59.8031 43.125 60.375V69C43.125 69.5719 43.3522 70.1203 43.7565 70.5247C44.1609 70.9291 44.7094 71.1562 45.2812 71.1562H53.9062C54.4781 71.1562 55.0266 70.9291 55.431 70.5247C55.8353 70.1203 56.0625 69.5719 56.0625 69V60.375C56.0625 59.8031 55.8353 59.2547 55.431 58.8503C55.0266 58.4459 54.4781 58.2188 53.9062 58.2188ZM51.75 66.8438H47.4375V62.5312H51.75V66.8438Z" fill="#05FFFF"/>
<path d="M32.3438 79.7812H23.7188C23.1469 79.7812 22.5984 80.0084 22.1941 80.4128C21.7897 80.8172 21.5625 81.3656 21.5625 81.9375V90.5625C21.5625 91.1344 21.7897 91.6828 22.1941 92.0872C22.5984 92.4916 23.1469 92.7188 23.7188 92.7188H32.3438C32.9156 92.7188 33.4641 92.4916 33.8684 92.0872C34.2728 91.6828 34.5 91.1344 34.5 90.5625V81.9375C34.5 81.3656 34.2728 80.8172 33.8684 80.4128C33.4641 80.0084 32.9156 79.7812 32.3438 79.7812ZM30.1875 88.4062H25.875V84.0938H30.1875V88.4062Z" fill="white"/>
<path d="M53.9062 79.7812H45.2812C44.7094 79.7812 44.1609 80.0084 43.7565 80.4128C43.3522 80.8172 43.125 81.3656 43.125 81.9375V90.5625C43.125 91.1344 43.3522 91.6828 43.7565 92.0872C44.1609 92.4916 44.7094 92.7188 45.2812 92.7188H53.9062C54.4781 92.7188 55.0266 92.4916 55.431 92.0872C55.8353 91.6828 56.0625 91.1344 56.0625 90.5625V81.9375C56.0625 81.3656 55.8353 80.8172 55.431 80.4128C55.0266 80.0084 54.4781 79.7812 53.9062 79.7812ZM51.75 88.4062H47.4375V84.0938H51.75V88.4062Z" fill="#05FFFF"/>
<path d="M32.3438 101.344H23.7188C23.1469 101.344 22.5984 101.571 22.1941 101.975C21.7897 102.38 21.5625 102.928 21.5625 103.5V112.125C21.5625 112.697 21.7897 113.245 22.1941 113.65C22.5984 114.054 23.1469 114.281 23.7188 114.281H32.3438C32.9156 114.281 33.4641 114.054 33.8684 113.65C34.2728 113.245 34.5 112.697 34.5 112.125V103.5C34.5 102.928 34.2728 102.38 33.8684 101.975C33.4641 101.571 32.9156 101.344 32.3438 101.344ZM30.1875 109.969H25.875V105.656H30.1875V109.969Z" fill="white"/>
<path d="M53.9062 101.344H45.2812C44.7094 101.344 44.1609 101.571 43.7565 101.975C43.3522 102.38 43.125 102.928 43.125 103.5V112.125C43.125 112.697 43.3522 113.245 43.7565 113.65C44.1609 114.054 44.7094 114.281 45.2812 114.281H53.9062C54.4781 114.281 55.0266 114.054 55.431 113.65C55.8353 113.245 56.0625 112.697 56.0625 112.125V103.5C56.0625 102.928 55.8353 102.38 55.431 101.975C55.0266 101.571 54.4781 101.344 53.9062 101.344ZM51.75 109.969H47.4375V105.656H51.75V109.969Z" fill="#05FFFF"/>
<path d="M99.514 67.1087L88.7328 65.4613L83.8904 55.1461C83.7164 54.7754 83.4404 54.4619 83.0947 54.2422C82.749 54.0226 82.3479 53.906 81.9384 53.906C81.5289 53.906 81.1278 54.0226 80.7821 54.2422C80.4365 54.4619 80.1605 54.7754 79.9865 55.1461L75.1462 65.4613L64.365 67.1087C63.9728 67.1684 63.6048 67.3351 63.3013 67.5905C62.9977 67.8458 62.7706 68.18 62.6447 68.5561C62.5188 68.9322 62.4991 69.3358 62.5878 69.7224C62.6764 70.109 62.87 70.4637 63.1472 70.7474L71.0124 78.8083L69.1527 90.2164C69.0883 90.6153 69.1373 91.0241 69.294 91.3964C69.4508 91.7688 69.7089 92.0896 70.0391 92.3223C70.3693 92.555 70.7583 92.6903 71.1616 92.7128C71.5649 92.7352 71.9665 92.6439 72.3205 92.4492L81.9384 87.133L91.5564 92.4492C91.9105 92.645 92.3126 92.7372 92.7167 92.7152C93.1208 92.6932 93.5105 92.5579 93.8414 92.3249C94.1722 92.0918 94.4307 91.7703 94.5875 91.3973C94.7442 91.0242 94.7928 90.6145 94.7277 90.2151L92.8679 78.8069L100.733 70.746C101.01 70.4623 101.204 70.1077 101.293 69.7211C101.381 69.3345 101.362 68.9309 101.236 68.5547C101.11 68.1786 100.883 67.8445 100.579 67.5891C100.276 67.3337 99.9075 67.1671 99.5154 67.1074L99.514 67.1087ZM89.0201 76.5738C88.7844 76.8154 88.6087 77.1089 88.5071 77.4307C88.4055 77.7526 88.3809 78.0938 88.4352 78.4269L89.7559 86.5266L82.981 82.7801C82.6616 82.6036 82.3027 82.511 81.9379 82.511C81.573 82.511 81.2141 82.6036 80.8948 82.7801L74.1199 86.5266L75.4406 78.4269C75.4949 78.0938 75.4703 77.7526 75.3687 77.4307C75.2671 77.1089 75.0914 76.8154 74.8557 76.5738L69.1626 70.738L76.934 69.552C77.284 69.4985 77.6154 69.3596 77.899 69.1477C78.1826 68.9357 78.4097 68.6572 78.5601 68.3367L81.9384 61.1373L85.317 68.3354C85.4674 68.6559 85.6945 68.9344 85.9781 69.1463C86.2617 69.3583 86.5931 69.4972 86.9431 69.5507L94.7145 70.7366L89.0201 76.5738Z" fill="#05FFFF"/>
<path d="M118.594 79.7812H109.969C109.397 79.7812 108.848 80.0084 108.444 80.4128C108.04 80.8172 107.812 81.3656 107.812 81.9375V90.5625C107.812 91.1344 108.04 91.6828 108.444 92.0872C108.848 92.4916 109.397 92.7188 109.969 92.7188H118.594C119.166 92.7188 119.714 92.4916 120.118 92.0872C120.523 91.6828 120.75 91.1344 120.75 90.5625V81.9375C120.75 81.3656 120.523 80.8172 120.118 80.4128C119.714 80.0084 119.166 79.7812 118.594 79.7812ZM116.438 88.4062H112.125V84.0938H116.438V88.4062Z" fill="white"/>
<path d="M118.594 101.344H109.969C109.397 101.344 108.848 101.571 108.444 101.975C108.04 102.38 107.812 102.928 107.812 103.5V112.125C107.812 112.697 108.04 113.245 108.444 113.65C108.848 114.054 109.397 114.281 109.969 114.281H118.594C119.166 114.281 119.714 114.054 120.118 113.65C120.523 113.245 120.75 112.697 120.75 112.125V103.5C120.75 102.928 120.523 102.38 120.118 101.975C119.714 101.571 119.166 101.344 118.594 101.344ZM116.438 109.969H112.125V105.656H116.438V109.969Z" fill="white"/>
<path d="M97.0312 101.344H88.4062C87.8344 101.344 87.2859 101.571 86.8815 101.975C86.4772 102.38 86.25 102.928 86.25 103.5V112.125C86.25 112.697 86.4772 113.245 86.8815 113.65C87.2859 114.054 87.8344 114.281 88.4062 114.281H97.0312C97.6031 114.281 98.1516 114.054 98.556 113.65C98.9603 113.245 99.1875 112.697 99.1875 112.125V103.5C99.1875 102.928 98.9603 102.38 98.556 101.975C98.1516 101.571 97.6031 101.344 97.0312 101.344ZM94.875 109.969H90.5625V105.656H94.875V109.969Z" fill="#05FFFF"/>
</svg>
