<svg width="139" height="139" viewBox="0 0 139 139" fill="none" xmlns="http://www.w3.org/2000/svg">
<path d="M49.9531 103.164C41.5719 103.164 34.75 109.984 34.75 118.365C34.75 119.566 35.7208 120.537 36.9219 120.537C38.1229 120.537 39.0938 119.566 39.0938 118.365C39.0938 112.377 43.9653 107.508 49.9531 107.508C51.1542 107.508 52.125 106.537 52.125 105.336C52.125 104.135 51.1542 103.164 49.9531 103.164Z" fill="white"/>
<path d="M58.6406 103.166L49.9531 103.164C48.7543 103.164 47.7812 104.135 47.7812 105.336C47.7812 106.535 48.7521 107.508 49.9531 107.508L58.6406 107.51C59.8395 107.51 60.8125 106.539 60.8125 105.338C60.8125 104.139 59.8417 103.166 58.6406 103.166Z" fill="white"/>
<path d="M36.9219 116.816C35.7208 116.816 34.75 117.787 34.75 118.988V131.398C34.75 132.599 35.7208 133.57 36.9219 133.57C38.1229 133.57 39.0938 132.599 39.0938 131.398V118.988C39.0938 117.787 38.1229 116.816 36.9219 116.816Z" fill="white"/>
<path d="M89.0469 103.164C87.8458 103.164 86.875 104.135 86.875 105.336C86.875 106.537 87.8458 107.508 89.0469 107.508C95.0347 107.508 99.9062 112.377 99.9062 118.365C99.9062 119.566 100.877 120.537 102.078 120.537C103.279 120.537 104.25 119.566 104.25 118.365C104.25 109.984 97.4281 103.164 89.0469 103.164Z" fill="white"/>
<path d="M89.0469 103.164L80.3594 103.166C79.1583 103.166 78.1875 104.139 78.1875 105.338C78.1875 106.539 79.1605 107.51 80.3594 107.51L89.0469 107.508C90.2479 107.508 91.2188 106.535 91.2188 105.336C91.2188 104.135 90.2458 103.164 89.0469 103.164Z" fill="white"/>
<path d="M102.078 116.816C100.877 116.816 99.9062 117.787 99.9062 118.988V131.398C99.9062 132.599 100.877 133.57 102.078 133.57C103.279 133.57 104.25 132.599 104.25 131.398V118.988C104.25 117.787 103.279 116.816 102.078 116.816Z" fill="white"/>
<path d="M97.7344 133.57H41.2656C40.0646 133.57 39.0938 134.541 39.0938 135.742C39.0938 136.943 40.0646 137.914 41.2656 137.914H97.7344C98.9354 137.914 99.9062 136.943 99.9062 135.742C99.9062 134.541 98.9354 133.57 97.7344 133.57Z" fill="white"/>
<path d="M58.6406 96.214C57.4396 96.214 56.4688 97.1848 56.4688 98.3859V105.338C56.4688 106.539 57.4396 107.51 58.6406 107.51C59.8417 107.51 60.8125 106.539 60.8125 105.338V98.3859C60.8125 97.1848 59.8417 96.214 58.6406 96.214Z" fill="white"/>
<path d="M80.3594 96.214C79.1583 96.214 78.1875 97.1848 78.1875 98.3859V105.336C78.1875 106.537 79.1583 107.508 80.3594 107.508C81.5604 107.508 82.5312 106.537 82.5312 105.336V98.3859C82.5312 97.1848 81.5604 96.214 80.3594 96.214Z" fill="white"/>
<path d="M93.3906 74.9297C92.1896 74.9297 91.2188 75.9005 91.2188 77.1016C91.2188 89.0773 81.4757 98.8203 69.5 98.8203C57.5243 98.8203 47.7812 89.0773 47.7812 77.1016C47.7812 75.9005 46.8104 74.9297 45.6094 74.9297C44.4083 74.9297 43.4375 75.9005 43.4375 77.1016C43.4375 91.4729 55.1287 103.164 69.5 103.164C83.8713 103.164 95.5625 91.4729 95.5625 77.1016C95.5625 75.9005 94.5917 74.9297 93.3906 74.9297Z" fill="white"/>
<path d="M45.6094 55.3828C44.4083 55.3828 43.4375 56.3536 43.4375 57.5547V77.1037C43.4375 78.3048 44.4083 79.2756 45.6094 79.2756C46.8104 79.2756 47.7812 78.3048 47.7812 77.1037V57.5547C47.7812 56.3536 46.8104 55.3828 45.6094 55.3828Z" fill="white"/>
<path d="M93.3906 55.3828C92.1896 55.3828 91.2188 56.3536 91.2188 57.5547V77.1059C91.2188 78.307 92.1896 79.2778 93.3906 79.2778C94.5917 79.2778 95.5625 78.307 95.5625 77.1059V57.5547C95.5625 56.3536 94.5917 55.3828 93.3906 55.3828Z" fill="white"/>
<path d="M82.5312 44.5234C81.3302 44.5234 80.3594 45.4943 80.3594 46.6953C80.3594 47.8964 81.3302 48.8672 82.5312 48.8672C87.3224 48.8672 91.2188 52.7635 91.2188 57.5547C91.2188 58.7557 92.1896 59.7266 93.3906 59.7266C94.5917 59.7266 95.5625 58.7557 95.5625 57.5547C95.5625 50.368 89.718 44.5234 82.5312 44.5234Z" fill="white"/>
<path d="M82.5312 35.8359C81.3302 35.8359 80.3594 36.8068 80.3594 38.0078V46.6953C80.3594 47.8964 81.3302 48.8672 82.5312 48.8672C83.7323 48.8672 84.7031 47.8964 84.7031 46.6953V38.0078C84.7031 36.8068 83.7323 35.8359 82.5312 35.8359Z" fill="white"/>
<path d="M82.5312 35.8359H65.1562C63.9552 35.8359 62.9844 36.8068 62.9844 38.0078C62.9844 39.2089 63.9552 40.1797 65.1562 40.1797H82.5312C83.7323 40.1797 84.7031 39.2089 84.7031 38.0078C84.7031 36.8068 83.7323 35.8359 82.5312 35.8359Z" fill="white"/>
<path d="M65.1562 35.8381C53.1805 35.8381 43.4375 45.5789 43.4375 57.5547C43.4375 58.7557 44.4083 59.7265 45.6094 59.7265C46.8104 59.7265 47.7812 58.7557 47.7812 57.5547C47.7812 47.9745 55.5761 40.1818 65.1562 40.1818C66.3573 40.1818 67.3281 39.211 67.3281 38.0099C67.3281 36.8089 66.3573 35.8381 65.1562 35.8381Z" fill="white"/>
<path d="M94.9267 66.8786L88.4111 60.363C87.5619 59.5138 86.1892 59.5138 85.34 60.363C84.4908 61.2122 84.4908 62.5848 85.34 63.434L91.8556 69.9496C92.2792 70.3732 92.8352 70.586 93.3912 70.586C93.9472 70.586 94.5032 70.3732 94.9267 69.9496C95.7759 69.1004 95.7759 67.7278 94.9267 66.8786Z" fill="white"/>
<path d="M88.7866 60.8691C88.2197 59.8135 86.9014 59.4161 85.8459 59.9851C85.7698 60.0286 78.1596 64.0704 69.5003 64.0704C60.8823 64.0704 53.2286 60.0264 53.1526 59.9851C52.0906 59.4139 50.7809 59.8179 50.2119 60.8713C49.6451 61.929 50.0403 63.2429 51.0959 63.812C51.4455 63.9988 59.7595 68.4142 69.5003 68.4142C79.2412 68.4142 87.5551 63.9987 87.9026 63.8098C88.9581 63.2429 89.3534 61.9246 88.7866 60.8691Z" fill="white"/>
<path d="M53.6611 60.363C52.8119 59.5138 51.4392 59.5138 50.59 60.363L44.0744 66.8786C43.2252 67.7278 43.2252 69.1004 44.0744 69.9496C44.4979 70.3732 45.0539 70.586 45.6099 70.586C46.1659 70.586 46.7219 70.3732 47.1454 69.9496L53.6611 63.434C54.5103 62.5848 54.5103 61.2122 53.6611 60.363Z" fill="white"/>
<path d="M64.5204 108.144L60.1767 103.803C59.3275 102.953 57.9549 102.953 57.1057 103.803C56.2564 104.652 56.2564 106.024 57.1057 106.874L61.4494 111.215C61.8729 111.639 62.4289 111.852 62.9849 111.852C63.5409 111.852 64.0969 111.639 64.5204 111.215C65.3696 110.366 65.3696 108.993 64.5204 108.144Z" fill="white"/>
<path d="M71.5606 106.819C71.1827 105.681 69.9578 105.065 68.8132 105.447L62.2976 107.619C61.1595 107.997 60.5449 109.228 60.925 110.366C61.2268 111.276 62.0739 111.852 62.9839 111.852C63.2098 111.852 63.4422 111.815 63.6724 111.739L70.188 109.567C71.3261 109.189 71.9407 107.957 71.5606 106.819Z" fill="white"/>
<path d="M81.8954 103.803C81.0462 102.953 79.6736 102.953 78.8244 103.803L74.4807 108.144C73.6314 108.993 73.6314 110.366 74.4807 111.215C74.9042 111.639 75.4602 111.852 76.0162 111.852C76.5722 111.852 77.1282 111.639 77.5517 111.215L81.8954 106.874C82.7446 106.024 82.7446 104.652 81.8954 103.803Z" fill="white"/>
<path d="M76.7034 107.619L70.1878 105.447C69.0389 105.065 67.8204 105.684 67.4404 106.819C67.0603 107.96 67.6771 109.189 68.813 109.567L75.3286 111.739C75.5567 111.815 75.7891 111.852 76.0149 111.852C76.9249 111.852 77.772 111.276 78.076 110.366C78.4561 109.226 77.8393 107.997 76.7034 107.619Z" fill="white"/>
<path d="M102.078 129.227C100.877 129.227 99.9062 130.197 99.9062 131.398C99.9062 132.597 98.9332 133.57 97.7344 133.57C96.5333 133.57 95.5625 134.541 95.5625 135.742C95.5625 136.943 96.5333 137.914 97.7344 137.914C101.327 137.914 104.25 134.991 104.25 131.398C104.25 130.197 103.279 129.227 102.078 129.227Z" fill="white"/>
<path d="M41.2656 133.57C40.0668 133.57 39.0938 132.597 39.0938 131.398C39.0938 130.197 38.1229 129.227 36.9219 129.227C35.7208 129.227 34.75 130.197 34.75 131.398C34.75 134.991 37.6733 137.914 41.2656 137.914C42.4667 137.914 43.4375 136.943 43.4375 135.742C43.4375 134.541 42.4667 133.57 41.2656 133.57Z" fill="white"/>
<path d="M136.828 59.7266H104.25C103.049 59.7266 102.078 60.6974 102.078 61.8984V92.3047C102.078 93.5057 103.049 94.4766 104.25 94.4766H136.828C138.029 94.4766 139 93.5057 139 92.3047V61.8984C139 60.6974 138.029 59.7266 136.828 59.7266ZM134.656 90.1328H106.422V64.0703H134.656V90.1328Z" fill="white"/>
<path d="M136.828 66.2422H104.25C103.049 66.2422 102.078 67.213 102.078 68.4141C102.078 69.6151 103.049 70.5859 104.25 70.5859H136.828C138.029 70.5859 139 69.6151 139 68.4141C139 67.213 138.029 66.2422 136.828 66.2422Z" fill="white"/>
<path d="M128.14 74.9297H113.117C111.916 74.9297 110.945 75.9005 110.945 77.1016C110.945 78.3026 111.916 79.2734 113.117 79.2734H128.14C129.341 79.2734 130.312 78.3026 130.312 77.1016C130.312 75.9005 129.341 74.9297 128.14 74.9297Z" fill="white"/>
<path d="M121.624 81.4453H113.117C111.916 81.4453 110.945 82.4161 110.945 83.6172C110.945 84.8182 111.916 85.7891 113.117 85.7891H121.624C122.825 85.7891 123.796 84.8182 123.796 83.6172C123.796 82.4161 122.825 81.4453 121.624 81.4453Z" fill="white"/>
<path d="M26.0625 5.42969C14.0868 5.42969 4.34375 15.1727 4.34375 27.1484C4.34375 39.1242 14.0868 48.8672 26.0625 48.8672C38.0382 48.8672 47.7812 39.1242 47.7812 27.1484C47.7812 15.1727 38.0382 5.42969 26.0625 5.42969ZM26.0625 44.5234C16.4824 44.5234 8.6875 36.7286 8.6875 27.1484C8.6875 17.5683 16.4824 9.77344 26.0625 9.77344C35.6426 9.77344 43.4375 17.5683 43.4375 27.1484C43.4375 36.7286 35.6426 44.5234 26.0625 44.5234Z" fill="white"/>
<path d="M30.4062 18.4609C29.2074 18.4609 28.2344 17.4879 28.2344 16.2891C28.2344 15.0902 29.2074 14.1172 30.4062 14.1172C31.6073 14.1172 32.5781 13.1464 32.5781 11.9453C32.5781 10.7443 31.6073 9.77344 30.4062 9.77344C26.814 9.77344 23.8906 12.6968 23.8906 16.2891C23.8906 19.8813 26.814 22.8047 30.4062 22.8047C31.6073 22.8047 32.5781 21.8339 32.5781 20.6328C32.5781 19.4318 31.6073 18.4609 30.4062 18.4609Z" fill="white"/>
<path d="M38.3488 9.77344H30.4063C29.2052 9.77344 28.2344 10.7443 28.2344 11.9453C28.2344 13.1464 29.2052 14.1172 30.4063 14.1172H38.3488C39.5498 14.1172 40.5207 13.1464 40.5207 11.9453C40.5207 10.7443 39.5498 9.77344 38.3488 9.77344Z" fill="white"/>
<path d="M44.4366 18.4609H30.4063C29.2052 18.4609 28.2344 19.4318 28.2344 20.6328C28.2344 21.8339 29.2052 22.8047 30.4063 22.8047H44.4366C45.6376 22.8047 46.6084 21.8339 46.6084 20.6328C46.6084 19.4318 45.6376 18.4609 44.4366 18.4609Z" fill="white"/>
<path d="M17.375 31.4922C16.174 31.4922 15.2031 32.463 15.2031 33.6641C15.2031 34.8651 16.174 35.8359 17.375 35.8359C18.5739 35.8359 19.5469 36.8089 19.5469 38.0078C19.5469 39.2067 18.5739 40.1797 17.375 40.1797C16.174 40.1797 15.2031 41.1505 15.2031 42.3516C15.2031 43.5526 16.174 44.5234 17.375 44.5234C20.9673 44.5234 23.8906 41.6001 23.8906 38.0078C23.8906 34.4155 20.9673 31.4922 17.375 31.4922Z" fill="white"/>
<path d="M17.3759 40.1797H13.7793C12.5782 40.1797 11.6074 41.1505 11.6074 42.3516C11.6074 43.5526 12.5782 44.5234 13.7793 44.5234H17.3759C18.577 44.5234 19.5478 43.5526 19.5478 42.3516C19.5478 41.1505 18.577 40.1797 17.3759 40.1797Z" fill="white"/>
<path d="M17.3761 31.4922H7.63086C6.42981 31.4922 5.45898 32.463 5.45898 33.6641C5.45898 34.8651 6.42981 35.8359 7.63086 35.8359H17.3761C18.5771 35.8359 19.5479 34.8651 19.5479 33.6641C19.5479 32.463 18.5771 31.4922 17.3761 31.4922Z" fill="white"/>
<path d="M34.75 64.0703H2.17188C0.970828 64.0703 0 65.0411 0 66.2422V92.3047C0 93.5057 0.970828 94.4766 2.17188 94.4766H34.75C35.951 94.4766 36.9219 93.5057 36.9219 92.3047V66.2422C36.9219 65.0411 35.951 64.0703 34.75 64.0703ZM32.5781 90.1328H4.34375V68.4141H32.5781V90.1328Z" fill="#05FFFF"/>
<path d="M16.5049 81.882C15.5493 81.1631 14.1853 81.3564 13.4664 82.3163L6.95082 91.0038C6.22976 91.9616 6.42523 93.3234 7.3852 94.0423C7.77614 94.3355 8.23223 94.4767 8.68615 94.4767C9.34857 94.4767 10.0001 94.1769 10.4237 93.6079L16.9393 84.9204C17.6603 83.9626 17.4649 82.6009 16.5049 81.882Z" fill="#05FFFF"/>
<path d="M21.154 87.9369L16.9383 82.3161C16.2195 81.354 14.8577 81.1607 13.8999 81.8818C12.9399 82.6007 12.7466 83.9624 13.4655 84.9202L17.6811 90.541C18.109 91.1101 18.7584 91.4098 19.4208 91.4098C19.8747 91.4098 20.3308 91.2664 20.7196 90.9754C21.6795 90.2565 21.8728 88.8947 21.154 87.9369Z" fill="#05FFFF"/>
<path d="M27.2672 77.4663C26.2638 76.7996 24.9194 77.0689 24.2548 78.0679L15.5673 91.0992C14.9005 92.0983 15.1698 93.4448 16.1689 94.1116C16.5403 94.357 16.9595 94.4765 17.3721 94.4765C18.0736 94.4765 18.7643 94.1377 19.1813 93.51L27.8688 80.4787C28.5356 79.4797 28.2662 78.1331 27.2672 77.4663Z" fill="#05FFFF"/>
<path d="M36.5563 91.0992L27.8688 78.0679C27.202 77.0689 25.8555 76.7996 24.8564 77.4663C23.8573 78.1331 23.588 79.4797 24.2548 80.4787L32.9423 93.51C33.3593 94.1377 34.0499 94.4765 34.7515 94.4765C35.1641 94.4765 35.5833 94.357 35.9547 94.1116C36.9537 93.4448 37.2231 92.0983 36.5563 91.0992Z" fill="#05FFFF"/>
<path d="M10.9249 72.7578H10.901C9.70216 72.7578 8.74219 73.7286 8.74219 74.9297C8.74219 76.1307 9.72388 77.1016 10.9249 77.1016C12.1238 77.1016 13.0968 76.1307 13.0968 74.9297C13.0968 73.7286 12.1238 72.7578 10.9249 72.7578Z" fill="white"/>
<path d="M112.938 1.08594H91.2188C90.0177 1.08594 89.0469 2.05677 89.0469 3.25781V24.9766C89.0469 26.1776 90.0177 27.1484 91.2188 27.1484H112.938C114.139 27.1484 115.109 26.1776 115.109 24.9766V3.25781C115.109 2.05677 114.139 1.08594 112.938 1.08594ZM110.766 22.8047H93.3906V5.42969H110.766V22.8047Z" fill="#05FFFF"/>
<path d="M119.453 31.4922H108.594C107.393 31.4922 106.422 32.463 106.422 33.6641V44.5234C106.422 45.7245 107.393 46.6953 108.594 46.6953H119.453C120.654 46.6953 121.625 45.7245 121.625 44.5234V33.6641C121.625 32.463 120.654 31.4922 119.453 31.4922ZM117.281 42.3516H110.766V35.8359H117.281V42.3516Z" fill="#05FFFF"/>
<path d="M80.3594 9.77344H71.6719C70.4708 9.77344 69.5 10.7443 69.5 11.9453V20.6328C69.5 21.8339 70.4708 22.8047 71.6719 22.8047H80.3594C81.5604 22.8047 82.5312 21.8339 82.5312 20.6328V11.9453C82.5312 10.7443 81.5604 9.77344 80.3594 9.77344ZM78.1875 18.4609H73.8438V14.1172H78.1875V18.4609Z" fill="#05FFFF"/>
</svg>
