<svg width="32" height="32" viewBox="0 0 32 32" fill="none" xmlns="http://www.w3.org/2000/svg">
<rect width="32" height="32" rx="5" fill="white"/>
<path fill-rule="evenodd" clip-rule="evenodd" d="M26.4952 11.8126C26.6481 11.3442 26.4952 11 25.7673 11H23.3605C22.7485 11 22.4664 11.2973 22.3134 11.6252C22.3134 11.6252 21.0895 14.3652 19.3556 16.145C18.7946 16.6602 18.5396 16.8242 18.2336 16.8242C18.0807 16.8242 17.8592 16.6602 17.8592 16.1919V11.8126C17.8592 11.2505 17.6816 11 17.1716 11H13.3895C13.007 11 12.777 11.2609 12.777 11.5081C12.777 12.0409 13.6439 12.1638 13.7333 13.6626V16.9179C13.7333 17.6316 13.5929 17.761 13.287 17.761C12.471 17.761 10.4863 15.0087 9.30919 11.8594C9.0785 11.2473 8.84712 11 8.23201 11H5.8252C5.13754 11 5 11.2973 5 11.6252C5 12.2107 5.81596 15.1146 8.79925 18.9553C10.7881 21.5782 13.5903 23 16.1401 23C17.67 23 17.8592 22.6842 17.8592 22.1403V20.1579C17.8592 19.5263 18.0042 19.4003 18.4886 19.4003C18.8456 19.4003 19.4576 19.5642 20.8855 20.8288C22.5174 22.3276 22.7864 23 23.7043 23H26.1112C26.7988 23 27.1426 22.6842 26.9443 22.061C26.7272 21.4399 25.9481 20.5388 24.9143 19.4705C24.3533 18.8616 23.5118 18.2059 23.2568 17.878C22.8999 17.4565 23.0019 17.2691 23.2568 16.8944C23.2568 16.8944 26.1892 13.1006 26.4952 11.8126Z" fill="#0A011B"/>
</svg>
